<svg width="12" height="12" viewBox="0 0 12 12" fill="none" xmlns="http://www.w3.org/2000/svg">
<path d="M6 0C2.69166 0 0 2.69166 0 6C0 9.30834 2.69166 12 6 12C9.30834 12 12 9.30834 12 6C12 2.69166 9.30834 0 6 0ZM6 11.25C3.1051 11.25 0.750003 8.8949 0.750003 6C0.750003 3.1051 3.1051 0.750003 6 0.750003C8.8949 0.750003 11.25 3.1051 11.25 6C11.25 8.8949 8.8949 11.25 6 11.25Z" fill="white"/>
<path d="M6.37494 2.25H5.62494V6.15526L7.98479 8.51512L8.51507 7.98485L6.37494 5.84472V2.25Z" fill="white"/>
</svg>
