<svg width="289" height="66" viewBox="0 0 289 66" fill="none" xmlns="http://www.w3.org/2000/svg">
<g clip-path="url(#clip0)">
<path fill-rule="evenodd" clip-rule="evenodd" d="M59.3564 27.725C59.3564 30.5813 59.3564 32.7317 59.3564 35.6371C59.3564 36.4743 59.575 37.6234 59.3564 38.2472C59.2144 38.6466 58.1382 39.0843 57.5372 39.4345C43.0654 47.9321 28.9486 55.8497 14.3238 64.4403C11.8326 65.9013 8.2761 66.7549 5.00368 65.0751C2.72556 63.9041 0.463816 61.2613 0.103249 58.1095C-0.12074 56.1342 0.103249 53.9127 0.103249 51.7788C0.103249 39.2157 0.103249 26.8003 0.103249 14.1114C0.103249 12.0485 -0.137129 9.8106 0.103249 7.86266C0.709657 2.93263 6.03622 -1.5323 12.1167 0.503185C14.1381 1.18168 16.1157 2.67546 18.1207 3.82452C31.8004 11.6929 45.9499 19.8184 59.3564 27.725ZM20.4097 16.3329C18.4867 15.2057 16.8423 13.6353 13.9305 14.0402C12.073 14.2974 10.2155 16.0538 9.82217 17.9963C9.45614 19.791 9.74569 22.9427 9.74569 25.5911C9.74569 30.4007 9.74569 35.7794 9.74569 40.4687C9.74569 43.0732 9.43975 45.7872 9.74569 47.9868C10.0079 49.8582 12.002 51.6474 13.5371 52.025C16.7112 52.802 18.4157 50.9197 20.3333 49.8089C30.2926 44.0417 39.4979 38.9202 49.2496 33.0326C39.9568 27.5445 29.9211 21.9141 20.4097 16.3329Z" fill="#90B6B8"/>
<path fill-rule="evenodd" clip-rule="evenodd" d="M79.1118 33.0274C88.1806 27.6268 98.2 21.8596 107.635 16.4098C109.11 15.5562 110.563 14.4618 112.06 14.035C112.415 13.9311 113.934 13.8873 114.666 14.035C116.31 14.3688 118.304 16.0158 118.616 18.0732C118.965 20.3877 118.616 23.0689 118.616 25.5913C118.616 30.3517 118.616 35.7195 118.616 40.6276C118.616 43.1227 118.96 45.9954 118.539 48.0637C118.02 50.619 115.491 52.5451 112.218 51.9432C110.847 51.6915 109.197 50.5041 107.875 49.7271C98.2492 44.0912 88.8088 38.6852 79.1118 33.0274Z" fill="#90B6B8"/>
<path fill-rule="evenodd" clip-rule="evenodd" d="M180.082 23.1344C182.13 22.6693 183.168 23.8183 183.796 25.2683C183.982 25.7006 184.818 28.2887 183.638 28.1957C183.032 28.1465 182.879 25.8101 182.769 25.5036C182.518 24.7923 182.065 23.7472 181.109 23.6815C178.688 23.5283 178.82 28.1191 178.82 30.959C178.82 32.0861 178.82 33.7878 178.82 34.5211C178.82 35.6209 178.847 37.7767 178.978 39.1118C179.093 40.2719 179.797 41.8039 180.956 41.8039C182.425 41.8039 182.873 39.9709 183.086 38.7179C183.174 38.1981 183.157 37.5469 183.562 37.4539C185.058 37.1037 183.709 40.6056 183.562 40.8573C182.114 43.3689 178.24 42.9202 177.874 39.3526C177.683 37.4758 177.951 35.2379 177.951 32.7044C177.945 28.6335 177.022 23.8293 180.082 23.1344Z" fill="#90B6B8"/>
<path fill-rule="evenodd" clip-rule="evenodd" d="M193.117 23.1345C195.493 22.6967 196.903 24.6939 197.148 26.6145C197.427 28.7922 197.072 30.7511 197.072 33.0219C197.072 35.3036 197.438 37.0874 197.148 39.3527C196.93 41.0653 195.706 42.5646 194.777 42.8327C192.483 43.5057 190.997 41.7766 190.746 39.8232C190.609 38.7508 190.784 37.6619 190.822 36.4198C190.855 35.4842 190.822 34.1436 190.822 32.9398C190.822 30.1328 190.516 27.9605 190.746 26.133C190.926 24.6994 191.685 23.3971 193.117 23.1345ZM191.773 30.4173C191.745 31.9002 191.773 33.5362 191.773 35.1668C191.773 37.4868 191.467 42.3895 194.062 42.2089C195.16 42.1323 195.854 40.4689 196.039 38.8876C196.231 37.2187 196.116 35.0628 196.116 32.9507C196.116 30.9317 196.258 28.8141 196.039 26.9373C195.908 25.843 195.236 23.5886 193.75 23.7747C191.505 24.0482 191.827 27.7143 191.773 30.4173Z" fill="#90B6B8"/>
<path fill-rule="evenodd" clip-rule="evenodd" d="M205.125 23.2932C206.523 28.1685 207.616 33.3557 209.074 38.1709C209.326 35.1122 209.233 30.6144 209.233 26.6966C209.233 25.5859 208.774 22.6147 210.183 23.2166C210.364 26.4942 210.129 30.9318 210.107 34.6908C210.101 35.9001 210.265 37.3446 210.265 38.729C210.265 39.8999 210.506 42.2473 209.872 42.5264C208.725 43.0243 208.413 39.9382 208.211 39.1229C207.168 34.9371 206.184 30.7621 205.053 26.7787C204.742 30.1931 204.868 35.0356 204.977 38.9643C205.01 40.075 205.283 43.0024 204.108 42.5264C203.584 42.313 203.759 41.4211 203.792 40.6277C203.955 36.9124 203.868 32.0097 203.868 27.6487C203.868 26.2534 203.759 24.1796 204.026 23.4574C204.168 23.0306 204.906 23.2768 205.125 23.2932Z" fill="#90B6B8"/>
<path fill-rule="evenodd" clip-rule="evenodd" d="M217.133 23.2932C218.684 23.4355 221.574 23.5285 224.005 23.5285C224.677 23.5285 225.95 23.3698 225.901 23.9225C225.83 24.6885 222.836 23.8349 222.109 24.0811C222.006 28.2123 221.754 33.5472 221.951 38.2475C222 39.4348 222.481 43.0571 221.159 42.5209C220.46 42.2364 220.787 39.3582 220.842 38.1709C221.055 33.6184 220.847 28.5789 220.918 24.0045C219.87 23.6872 217.362 24.7596 216.887 23.5285C216.941 23.4191 217.018 23.337 217.133 23.2932Z" fill="#90B6B8"/>
<path fill-rule="evenodd" clip-rule="evenodd" d="M232.615 23.2932C232.877 23.2932 233.139 23.2932 233.407 23.2932C233.314 28.0263 233.407 33.5308 233.407 38.4882C233.407 39.7467 233.975 42.685 232.457 42.5264C232.003 41.2733 232.298 39.6537 232.38 38.0177C232.593 33.4925 232.151 27.8785 232.457 23.5394C232.457 23.3972 232.517 23.326 232.615 23.2932Z" fill="#90B6B8"/>
<path fill-rule="evenodd" clip-rule="evenodd" d="M240.673 23.2932C240.99 23.2932 241.307 23.2932 241.624 23.2932C243.044 28.1466 244.131 33.3338 245.573 38.1708C245.967 34.2202 245.808 29.3614 245.808 24.9566C245.808 24.3985 245.623 23.72 246.043 23.2932C246.229 23.2932 246.409 23.2932 246.595 23.2932C246.967 23.8294 246.753 24.6994 246.753 25.5093C246.753 29.3395 246.628 33.8372 246.753 37.9301C246.797 39.3473 247.147 42.8273 245.961 42.5209C245.115 42.302 244.934 39.6537 244.699 38.7235C243.689 34.7018 242.656 30.5214 241.542 26.6966C241.198 30.1493 241.465 34.9589 241.465 38.8822C241.465 39.971 241.809 42.9422 240.673 42.5209C240.083 42.302 240.318 41.1091 240.356 40.2282C240.471 37.6565 240.433 35.0301 240.433 31.9221C240.433 28.9729 240.367 25.8923 240.509 23.534C240.515 23.3972 240.575 23.326 240.673 23.2932Z" fill="#90B6B8"/>
<path fill-rule="evenodd" clip-rule="evenodd" d="M253.632 23.2932C253.867 23.2932 254.107 23.2932 254.342 23.2932C254.342 26.1987 254.265 30.0508 254.265 33.6566C254.265 36.6606 253.67 42.2418 256.396 42.2801C257.795 42.302 258.456 40.2555 258.609 38.8001C259.095 34.1983 258.614 29.4543 258.685 24.5571C258.691 24.0319 258.62 23.0415 259.395 23.2932C259.898 23.4573 259.63 25.7445 259.63 26.9319C259.63 28.6008 259.586 29.7717 259.554 30.8113C259.428 34.4829 260.297 38.8986 258.92 41.3335C258.609 41.8861 257.816 42.674 257.259 42.8382C255.025 43.5003 253.539 41.7329 253.309 39.9108C253.146 38.6195 253.348 37.257 253.386 35.8727C253.501 32.2942 253.238 26.5489 253.462 23.5285C253.473 23.3971 253.533 23.326 253.632 23.2932Z" fill="#90B6B8"/>
<path fill-rule="evenodd" clip-rule="evenodd" d="M266.667 23.2931C266.825 23.2931 266.984 23.2931 267.142 23.2931C267.557 23.7691 267.404 24.5844 267.377 25.1918C267.295 27.0467 267.3 29.1861 267.3 31.2873C267.3 33.9848 267.027 36.6878 267.3 39.4401C267.432 40.7314 268.169 42.2909 269.431 42.2909C270.868 42.2854 271.48 40.2335 271.644 38.7288C272.07 34.8165 271.72 30.7893 271.72 26.702C271.72 26.215 271.72 25.3559 271.72 24.7212C271.72 23.8621 271.6 23.2001 272.272 23.2985C272.818 23.3751 272.665 23.977 272.665 24.8799C272.665 28.2669 272.665 31.3748 272.589 34.6907C272.518 37.6946 272.944 41.1911 270.851 42.5262C268.704 43.8941 266.601 41.979 266.35 39.9162C266.055 37.525 266.426 35.1284 266.426 32.2393C266.426 28.8195 266.328 25.8648 266.503 23.5338C266.508 23.397 266.568 23.3259 266.667 23.2931Z" fill="#90B6B8"/>
<path fill-rule="evenodd" clip-rule="evenodd" d="M281.679 23.4518C282.69 28.4584 283.176 33.9685 284.209 38.8821C284.974 35.5279 285.547 31.1998 286.105 27.0139C286.252 25.9086 286.132 22.8444 287.765 23.3752C288.328 24.7759 288.159 26.4229 288.241 28.0426C288.317 29.6622 288.361 31.342 288.476 32.9507C288.716 36.19 289.158 39.4566 288.951 42.4442C288.792 42.4442 288.634 42.4442 288.476 42.4442C288.077 41.2404 288.142 39.9491 288.082 38.6468C287.913 35.1668 287.705 30.8222 287.214 27.096C286.514 29.4214 286.187 32.0369 285.793 34.6907C285.405 37.3062 285.143 40.0202 284.531 42.4442C283.471 42.7561 283.772 41.6015 283.581 40.6221C282.745 36.2939 282.335 30.9481 281.292 27.0905C280.505 31.8181 280.734 37.5579 280.106 42.4442C279.871 42.4442 279.631 42.4442 279.396 42.4442C279.565 36.283 280.204 29.9084 280.499 23.6105C280.554 23.2493 281.401 23.3369 281.679 23.4518Z" fill="#90B6B8"/>
</g>
<defs>
<clipPath id="clip0">
<rect width="289" height="66" fill="white"/>
</clipPath>
</defs>
</svg>
