<svg width="30" height="30" viewBox="0 0 30 30" fill="none" xmlns="http://www.w3.org/2000/svg">
<g clip-path="url(#clip0)">
<path d="M25.6047 4.39131C19.7459 -1.46566 10.2484 -1.46426 4.39143 4.39453C-1.46554 10.2533 -1.46413 19.7508 4.39466 25.6078C10.2534 31.4647 19.7509 31.4633 25.6079 25.6045C28.4207 22.7908 30.0005 18.9749 29.9997 14.9963C29.9988 11.0184 28.4179 7.20369 25.6047 4.39131ZM22.7166 20.8944C22.716 20.895 22.7153 20.8957 22.7146 20.8964V20.8914L21.9546 21.6463C20.9717 22.6417 19.5402 23.0512 18.1796 22.7263C16.8088 22.3594 15.5057 21.7754 14.3196 20.9964C13.2177 20.2921 12.1965 19.4689 11.2746 18.5413C10.4264 17.6993 9.66428 16.7747 8.9996 15.7813C8.27257 14.7125 7.69712 13.5481 7.2896 12.3213C6.82243 10.8802 7.20956 9.29877 8.28962 8.23635L9.1796 7.34637C9.42704 7.09782 9.82911 7.09694 10.0776 7.34438C10.0782 7.34502 10.079 7.34567 10.0796 7.34637L12.8896 10.1564C13.1381 10.4038 13.139 10.8059 12.8916 11.0544C12.8909 11.055 12.8903 11.0556 12.8896 11.0564L11.2396 12.7064C10.7661 13.1746 10.7066 13.9188 11.0996 14.4564C11.6964 15.2754 12.3568 16.0461 13.0746 16.7614C13.8749 17.5652 14.745 18.2964 15.6746 18.9464C16.2117 19.3211 16.9399 19.2579 17.4046 18.7964L18.9996 17.1764C19.247 16.9279 19.6491 16.927 19.8976 17.1744C19.8982 17.1751 19.8989 17.1757 19.8996 17.1764L22.7146 19.9964C22.9632 20.2438 22.9641 20.6458 22.7166 20.8944Z" fill="#FF7D25"/>
</g>
<defs>
<clipPath id="clip0">
<rect width="30" height="30" fill="white"/>
</clipPath>
</defs>
</svg>
