<svg width="24" height="24" viewBox="0 0 24 24" fill="none" xmlns="http://www.w3.org/2000/svg">
<path d="M12 0.1875C17.066 0.1875 21.1875 4.30898 21.1875 9.375C21.1875 11.8359 19.6965 14.9962 16.7561 18.7677C15.4089 20.4912 13.95 22.1243 12.3888 23.6565C12.2841 23.7566 12.1448 23.8125 12 23.8125C11.8552 23.8125 11.7159 23.7566 11.6112 23.6565C10.05 22.1243 8.59109 20.4912 7.24392 18.7677C4.30345 14.9962 2.8125 11.8359 2.8125 9.375C2.8125 4.30898 6.93398 0.1875 12 0.1875ZM12 15.9375C15.6187 15.9375 18.5625 12.9937 18.5625 9.375C18.5625 5.75625 15.6187 2.8125 12 2.8125C8.38125 2.8125 5.4375 5.75625 5.4375 9.375C5.4375 12.9937 8.38125 15.9375 12 15.9375Z" fill="white"/>
<path d="M7.49657 8.58378L11.6216 4.83378C11.7251 4.73965 11.86 4.6875 11.9999 4.6875C12.1399 4.6875 12.2748 4.73965 12.3783 4.83378L16.5033 8.58378C16.5994 8.67117 16.6623 8.78912 16.6814 8.91761C16.7004 9.0461 16.6745 9.17722 16.6078 9.28874C16.5553 9.37364 16.4816 9.44348 16.3941 9.49146C16.3065 9.53943 16.208 9.5639 16.1082 9.56249H15.5624V13.125C15.5624 13.2742 15.5032 13.4172 15.3977 13.5227C15.2922 13.6282 15.1491 13.6875 14.9999 13.6875H13.6874C13.5383 13.6875 13.3952 13.6282 13.2897 13.5227C13.1842 13.4172 13.1249 13.2742 13.1249 13.125V11.0625C13.1249 10.9133 13.0657 10.7702 12.9602 10.6647C12.8547 10.5593 12.7116 10.5 12.5624 10.5H11.4374C11.2883 10.5 11.1452 10.5593 11.0397 10.6647C10.9342 10.7702 10.8749 10.9133 10.8749 11.0625V13.125C10.8749 13.2742 10.8157 13.4172 10.7102 13.5227C10.6047 13.6282 10.4616 13.6875 10.3124 13.6875H8.99994C8.85076 13.6875 8.70769 13.6282 8.6022 13.5227C8.49671 13.4172 8.43744 13.2742 8.43744 13.125V9.56249H7.89173C7.79189 9.5639 7.69338 9.53943 7.60581 9.49146C7.51824 9.44348 7.44459 9.37364 7.39204 9.28874C7.32543 9.17722 7.29945 9.0461 7.3185 8.91761C7.33756 8.78912 7.40047 8.67117 7.49657 8.58378Z" fill="white"/>
</svg>
