<svg width="70" height="70" viewBox="0 0 70 70" fill="none" xmlns="http://www.w3.org/2000/svg">
<g clip-path="url(#clip0)">
<path d="M68.9744 33.9746H52.4646V31.6416H56.919C57.4853 31.6416 57.9444 31.1825 57.9444 30.6163C57.9444 30.05 57.4853 29.5909 56.919 29.5909H52.4646V27.2578H55.5572C56.7093 27.2578 57.7925 26.8092 58.6071 25.9945L65.3508 19.2507C65.7903 19.4696 66.2774 19.5861 66.7827 19.5861C67.6421 19.5861 68.45 19.2514 69.0577 18.6438C69.6654 18.0361 70.0001 17.2283 70.0001 16.3688C70.0001 15.5094 69.6654 14.7016 69.0577 14.0939C68.4501 13.4861 67.6421 13.1515 66.7827 13.1515C65.9233 13.1515 65.1154 13.4861 64.5077 14.0937C63.9 14.7014 63.5653 15.5093 63.5653 16.3687C63.5653 16.874 63.6818 17.3611 63.9007 17.8006L57.1569 24.5443C56.7297 24.9716 56.1615 25.207 55.557 25.207H52.4645V22.9446C52.4645 19.9619 50.0379 17.5355 47.0554 17.5355H44.7929V8.45806C46.0655 8.0289 46.9848 6.82482 46.9848 5.40924C46.9848 3.63519 45.5415 2.19199 43.7676 2.19199C41.9936 2.19199 40.5503 3.63532 40.5503 5.40924C40.5503 6.82482 41.4696 8.02876 42.7422 8.45806V17.5353H40.4092V13.0809C40.4092 12.5146 39.9501 12.0555 39.3838 12.0555C38.8175 12.0555 38.3584 12.5146 38.3584 13.0809V17.5353H36.0253V1.02551C36.0253 0.459222 35.5662 0.00012207 35 0.00012207C34.4337 0.00012207 33.9746 0.459222 33.9746 1.02551V17.5353H31.6416V13.0809C31.6416 12.5146 31.1825 12.0555 30.6162 12.0555C30.0499 12.0555 29.5908 12.5146 29.5908 13.0809V17.5353H27.2579V14.4429C27.2579 13.2908 26.8092 12.2076 25.9945 11.393L19.2484 4.6469C19.8443 3.44364 19.6446 1.9433 18.6439 0.942521C17.3894 -0.311869 15.3483 -0.311732 14.094 0.942521C12.8396 2.19691 12.8396 4.23798 14.094 5.4925C14.7212 6.11963 15.5451 6.43326 16.369 6.43326C16.8595 6.43326 17.3492 6.31938 17.7983 6.09693L24.5444 12.8432C24.9718 13.2704 25.2071 13.8386 25.2071 14.4429V17.5353H22.9447C22.4874 17.5353 22.0325 17.5927 21.5928 17.7058C21.0444 17.8469 20.7143 18.4059 20.8554 18.9545C20.9965 19.503 21.5556 19.8331 22.104 19.6919C22.3768 19.6218 22.6595 19.5861 22.9445 19.5861H47.0554C48.9072 19.5861 50.4137 21.0927 50.4137 22.9444V47.0554C50.4137 47.3402 50.3782 47.6228 50.3082 47.8952C50.1672 48.4438 50.4975 49.0027 51.0459 49.1436C51.1315 49.1656 51.2173 49.1762 51.302 49.1762C51.7587 49.1762 52.1753 48.8687 52.2943 48.4058C52.4072 47.9666 52.4645 47.5122 52.4645 47.0552V44.7928H61.5417C61.9709 46.0654 63.175 46.9847 64.5906 46.9847C66.3646 46.9847 67.8078 45.5415 67.8078 43.7674C67.8078 41.9934 66.3645 40.5502 64.5906 40.5502C63.175 40.5502 61.971 41.4695 61.5417 42.7421H52.4645V40.409H56.9189C57.4852 40.409 57.9443 39.9499 57.9443 39.3836C57.9443 38.8173 57.4852 38.3582 56.9189 38.3582H52.4645V36.0254H68.9744C69.5407 36.0254 69.9998 35.5663 69.9998 35C69.9998 34.4337 69.5407 33.9746 68.9744 33.9746ZM65.9577 15.544C66.1781 15.3236 66.471 15.2024 66.7826 15.2024C67.0941 15.2024 67.387 15.3236 67.6074 15.544C67.8278 15.7644 67.949 16.0573 67.949 16.3688C67.949 16.6804 67.8278 16.9733 67.6074 17.1937C67.387 17.4141 67.0941 17.5353 66.7826 17.5353C66.471 17.5353 66.1781 17.4141 65.9577 17.1937C65.7374 16.9733 65.6161 16.6804 65.6161 16.3688C65.6161 16.0573 65.7374 15.7643 65.9577 15.544ZM17.1936 4.04247C16.7389 4.49706 15.9989 4.49719 15.5439 4.04233C15.089 3.58747 15.089 2.84742 15.5439 2.39269C15.7714 2.16519 16.0699 2.05158 16.3688 2.05158C16.6675 2.05158 16.9663 2.16533 17.1936 2.39269C17.6485 2.84755 17.6485 3.58761 17.1936 4.04247ZM43.7676 6.57572C43.1244 6.57572 42.6011 6.05236 42.6011 5.40924C42.6011 4.76612 43.1243 4.24276 43.7676 4.24276C44.4108 4.24276 44.934 4.76612 44.934 5.40924C44.934 6.05236 44.4107 6.57572 43.7676 6.57572ZM64.5907 42.6011C65.234 42.6011 65.7572 43.1245 65.7572 43.7676C65.7572 44.4108 65.2338 44.9341 64.5907 44.9341C63.9476 44.9341 63.4242 44.4107 63.4242 43.7676C63.4241 43.1243 63.9474 42.6011 64.5907 42.6011Z" fill="white"/>
<path d="M55.906 64.5076C54.9053 63.5068 53.4049 63.3071 52.2016 63.9031L45.4555 57.1568C45.0281 56.7296 44.7929 56.1614 44.7929 55.5571V52.4647H47.0553C47.5126 52.4647 47.9673 52.4072 48.4069 52.2942C48.9552 52.1531 49.2854 51.594 49.1443 51.0455C49.0032 50.4971 48.4445 50.167 47.8957 50.3081C47.6231 50.3782 47.3403 50.4137 47.0553 50.4137H22.9445C21.0926 50.4137 19.5861 48.9071 19.5861 47.0554V22.9446C19.5861 22.6595 19.6217 22.3768 19.6918 22.1043C19.833 21.5559 19.5029 20.9969 18.9545 20.8557C18.406 20.7144 17.8469 21.0446 17.7058 21.593C17.5926 22.0324 17.5353 22.4871 17.5353 22.9446V25.207H8.45794C8.02878 23.9344 6.8247 23.0151 5.40912 23.0151C3.63506 23.0151 2.19187 24.4583 2.19187 26.2324C2.19187 28.0064 3.6352 29.4496 5.40912 29.4496C6.8247 29.4496 8.02864 28.5303 8.45794 27.2578H17.5352V29.5909H13.0808C12.5145 29.5909 12.0554 30.05 12.0554 30.6163C12.0554 31.1825 12.5145 31.6416 13.0808 31.6416H17.5352V33.9746H1.02539C0.4591 33.9746 0 34.4337 0 35C0 35.5663 0.4591 36.0254 1.02539 36.0254H17.5352V38.3583H13.0808C12.5145 38.3583 12.0554 38.8174 12.0554 39.3837C12.0554 39.95 12.5145 40.4091 13.0808 40.4091H17.5352V42.7422H14.4426C13.2905 42.7422 12.2073 43.1908 11.3927 44.0055L4.64897 50.7493C4.20955 50.5304 3.72243 50.4139 3.21712 50.4139C2.35771 50.4139 1.54984 50.7486 0.942125 51.3561C0.334686 51.9639 0 52.7719 0 53.6311C0 54.4904 0.334686 55.2984 0.942399 55.9061C1.54997 56.5138 2.35798 56.8484 3.21739 56.8484C4.0768 56.8484 4.88467 56.5137 5.49238 55.9061C6.10009 55.2984 6.43478 54.4905 6.43478 53.6311C6.43478 53.1258 6.3183 52.6387 6.09941 52.1993L12.8432 45.4555C13.2704 45.0283 13.8386 44.7928 14.443 44.7928H17.5356V47.0553C17.5356 50.0379 19.9622 52.4644 22.9447 52.4644H25.2071V61.5417C23.9346 61.9708 23.0153 63.1749 23.0153 64.5905C23.0153 66.3645 24.4586 67.8077 26.2325 67.8077C28.0065 67.8077 29.4498 66.3644 29.4498 64.5905C29.4498 63.1749 28.5305 61.971 27.2579 61.5417V52.4644H29.5909V56.9188C29.5909 57.4851 30.05 57.9442 30.6163 57.9442C31.1826 57.9442 31.6417 57.4851 31.6417 56.9188V52.4644H33.9745V68.9745C33.9745 69.5408 34.4336 69.9999 34.9999 69.9999C35.5662 69.9999 36.0252 69.5408 36.0252 68.9745V52.4647H38.3582V56.9191C38.3582 57.4854 38.8173 57.9445 39.3836 57.9445C39.9499 57.9445 40.409 57.4854 40.409 56.9191V52.4647H42.7419V55.5571C42.7419 56.7092 43.1907 57.7924 44.0054 58.607L50.7514 65.3531C50.1555 66.5563 50.3552 68.0567 51.356 69.0575C51.9831 69.6847 52.8071 69.9982 53.631 69.9982C54.4549 69.9982 55.2789 69.6847 55.906 69.0575C57.1604 67.8031 57.1604 65.762 55.906 64.5076ZM5.40912 27.3989C4.76586 27.3989 4.24264 26.8755 4.24264 26.2324C4.24264 25.5891 4.766 25.0659 5.40912 25.0659C6.05224 25.0659 6.5756 25.5893 6.5756 26.2324C6.57574 26.8756 6.05238 27.3989 5.40912 27.3989ZM4.04207 54.456C3.82168 54.6763 3.52883 54.7976 3.21725 54.7976C2.90567 54.7976 2.61282 54.6763 2.39243 54.456C2.17204 54.2356 2.05077 53.9427 2.05077 53.6311C2.05077 53.3196 2.17204 53.0267 2.39243 52.8063C2.61282 52.5859 2.90567 52.4647 3.21725 52.4647C3.52883 52.4647 3.82168 52.5859 4.04207 52.8063C4.26246 53.0267 4.38373 53.3196 4.38373 53.6311C4.38373 53.9427 4.26246 54.2357 4.04207 54.456ZM27.3987 64.5907C27.3987 65.2339 26.8755 65.7572 26.2323 65.7572C25.589 65.7572 25.0658 65.2339 25.0658 64.5907C25.0658 63.9476 25.5891 63.4243 26.2323 63.4243C26.8754 63.4243 27.3987 63.9476 27.3987 64.5907ZM54.456 67.6074C54.0011 68.0623 53.261 68.0622 52.8062 67.6074C52.3513 67.1526 52.3513 66.4125 52.8062 65.9578C53.0337 65.7304 53.3324 65.6167 53.6311 65.6167C53.9299 65.6167 54.2286 65.7304 54.456 65.9578C54.9107 66.4125 54.9107 67.1526 54.456 67.6074Z" fill="white"/>
<path d="M45.8888 32.2603C45.8888 30.0673 44.2848 28.2097 42.089 27.6061C42.1539 27.338 42.19 27.0623 42.19 26.7805C42.19 24.7043 40.3472 23.0151 38.0823 23.0151C36.8554 23.0151 35.7533 23.5113 35 24.2955C34.2467 23.5113 33.1445 23.0151 31.9177 23.0151C29.6527 23.0151 27.81 24.7043 27.81 26.7805C27.81 27.0623 27.8461 27.338 27.911 27.6061C25.7152 28.2096 24.1112 30.0672 24.1112 32.2603C24.1112 33.332 24.4905 34.3432 25.1911 35.1783C24.506 36.0652 24.1112 37.1418 24.1112 38.2881C24.1109 40.0315 25.0425 41.6594 26.5769 42.6692C26.5769 42.67 26.5769 42.6708 26.5769 42.6717C26.5769 45.05 28.6962 46.985 31.3012 46.985C32.7983 46.985 34.1339 46.3453 35 45.3502C35.8661 46.3453 37.2017 46.985 38.6988 46.985C41.2058 46.985 43.2619 45.1926 43.4131 42.9378C44.9357 42.0544 45.8888 40.5069 45.8888 38.8359C45.8888 37.6068 45.3647 36.4343 44.4628 35.5481C45.3646 34.6619 45.8888 33.4893 45.8888 32.2603ZM42.2597 36.4548C43.2478 36.9763 43.8376 37.8664 43.8376 38.8359C43.8376 39.5587 43.5017 40.2482 42.9343 40.7638C42.3952 39.7656 41.4424 38.971 40.2386 38.5928C39.6986 38.4231 39.1229 38.7235 38.9531 39.2637C38.7833 39.804 39.0838 40.3796 39.6239 40.5492C40.6693 40.8778 41.3717 41.7308 41.3717 42.6718C41.3717 43.9193 40.1725 44.9343 38.6982 44.9343C37.2241 44.9343 36.0248 43.9193 36.0248 42.6718V36.0961C36.0248 34.8485 37.2241 33.8336 38.6982 33.8336C39.2645 33.8336 39.7236 33.3745 39.7236 32.8083C39.7236 32.242 39.2645 31.7829 38.6982 31.7829C37.7065 31.7829 36.7855 32.064 36.0248 32.5426V31.2329C36.0248 30.6666 35.5657 30.2075 34.9994 30.2075C34.4332 30.2075 33.9741 30.6666 33.9741 31.2329V36.9254C33.629 36.7088 33.2505 36.5296 32.8412 36.4009C32.3006 36.2311 31.7253 36.5316 31.5557 37.0717C31.3858 37.612 31.6862 38.1876 32.2264 38.3574C33.2717 38.6859 33.9741 39.5389 33.9741 40.4798V42.6717C33.9741 43.9192 32.7748 44.9342 31.3007 44.9342C29.8264 44.9342 28.6271 43.9192 28.6271 42.6717C28.6271 42.137 28.8538 41.6171 29.2653 41.2081C29.667 40.8089 29.6689 40.1596 29.2697 39.7579C28.8705 39.3562 28.2214 39.3543 27.8197 39.7535C27.574 39.9979 27.3625 40.2647 27.1867 40.5484C26.5392 39.9359 26.1612 39.1301 26.1612 38.2878C26.1612 36.7686 27.3535 35.4339 29.0607 35.0422C29.6126 34.9156 29.9574 34.3655 29.8308 33.8135C29.7042 33.2615 29.1539 32.9168 28.6021 33.0434C27.9148 33.2011 27.2821 33.4642 26.721 33.8097C26.3572 33.3528 26.1613 32.8177 26.1613 32.26C26.1617 30.7177 27.6238 29.4621 29.4261 29.4502C29.4353 29.4505 29.4444 29.4517 29.4535 29.4517C29.6875 29.4517 29.9228 29.372 30.1155 29.2089C30.5085 28.8761 30.5874 28.3115 30.3235 27.8867C30.3158 27.8741 30.3086 27.8613 30.3004 27.8491C30.2962 27.8429 30.2911 27.8371 30.2868 27.8309C30.2709 27.8086 30.2546 27.7867 30.237 27.7657C30.2365 27.765 30.236 27.7643 30.2355 27.7638C30.0645 27.5616 29.8603 27.2269 29.8603 26.7804C29.8603 25.835 30.7832 25.0658 31.9173 25.0658C33.0513 25.0658 33.9742 25.835 33.9742 26.7804C33.9742 27.3466 34.4333 27.8057 34.9996 27.8057C35.5659 27.8057 36.025 27.3466 36.025 26.7804C36.025 25.835 36.9478 25.0658 38.0819 25.0658C39.216 25.0658 40.1388 25.835 40.1388 26.7804C40.1388 27.033 40.0726 27.2485 39.985 27.4257C39.4018 27.4808 38.8377 27.6217 38.3021 27.8476C37.7803 28.0676 37.5357 28.669 37.7557 29.1908C37.9757 29.7126 38.5771 29.9574 39.0989 29.7373C39.5422 29.5504 40.0191 29.4543 40.5164 29.4505C40.5263 29.4507 40.536 29.4517 40.5458 29.4517C40.555 29.4517 40.564 29.4505 40.5732 29.4502C42.3755 29.4619 43.8376 30.7177 43.8376 32.26C43.8376 33.2295 43.2478 34.1195 42.2597 34.6411C41.9234 34.8186 41.7129 35.1676 41.7129 35.548C41.7129 35.9283 41.9234 36.2773 42.2597 36.4548Z" fill="white"/>
</g>
<defs>
<clipPath id="clip0">
<rect width="70" height="70" fill="white"/>
</clipPath>
</defs>
</svg>
