<svg width="70" height="70" viewBox="0 0 70 70" fill="none" xmlns="http://www.w3.org/2000/svg">
<path d="M47.0991 29.2884C47.5114 28.5163 47.8133 27.6795 47.9752 26.7958C48.4673 24.0997 47.7247 21.3938 45.9386 19.3714C45.4037 18.7655 44.9236 18.118 44.5069 17.4388C45.4081 16.6228 45.9375 15.4634 45.9375 14.2188C45.9375 12.1844 44.5419 10.4694 42.6562 9.98156V2.1875C42.6562 1.58375 42.1673 1.09375 41.5625 1.09375H28.4375C27.8327 1.09375 27.3438 1.58375 27.3438 2.1875V11.1202C27.3438 14.0241 26.1953 16.9334 24.1084 19.32C24.0909 19.3364 24.0756 19.3528 24.0603 19.3703C22.6516 20.9683 21.875 23.0234 21.875 25.1562C21.875 26.6459 22.2513 28.0492 22.9108 29.2786C21.5327 30.8656 20.7812 32.8661 20.7812 35C20.7812 37.123 21.5392 39.1256 22.9141 40.7137C22.2523 41.9453 21.875 43.3508 21.875 44.8438C21.875 46.772 22.505 48.6194 23.6655 50.1375C23.2116 50.8364 22.9688 51.648 22.9688 52.5C22.9688 54.8483 24.8281 56.7711 27.1523 56.8706C27.2792 57.5553 27.3438 58.228 27.3438 58.8798V67.8125C27.3438 68.4163 27.8327 68.9062 28.4375 68.9062H41.5625C42.1673 68.9062 42.6562 68.4163 42.6562 67.8125V58.8798C42.6562 55.9552 43.8211 53.0239 45.9364 50.6297C47.7247 48.6063 48.4662 45.9003 47.9741 43.2042C47.8133 42.3205 47.5114 41.4837 47.098 40.7116C48.4706 39.1256 49.2188 37.1284 49.2188 35C49.2188 32.8705 48.4717 30.8733 47.0991 29.2884ZM25.6583 20.8677C25.6736 20.8523 25.6878 20.8359 25.7031 20.8206C28.1717 18.025 29.5312 14.5797 29.5312 11.1213V3.28125H40.4688V10.9375C40.4688 11.5413 40.9577 12.0312 41.5625 12.0312C42.7689 12.0312 43.75 13.0123 43.75 14.2188C43.75 15.027 43.295 15.7664 42.5633 16.1481C42.0284 16.427 41.8195 17.0866 42.0984 17.6225C42.6913 18.7622 43.4317 19.8384 44.298 20.8195C45.6389 22.3366 46.1934 24.372 45.8237 26.4031C45.3512 28.9887 43.3016 31.0712 40.7247 31.5831C39.4144 31.8467 38.1008 31.7198 36.9119 31.2364C38.4366 29.6614 39.375 27.5166 39.375 25.1562H37.1875C37.1875 28.7755 34.2442 31.7188 30.625 31.7188C27.0058 31.7188 24.0625 28.7755 24.0625 25.1562C24.0625 23.5791 24.6291 22.0577 25.6583 20.8677ZM22.9688 35C22.9688 33.5781 23.4172 32.2383 24.2419 31.1216C25.8398 32.83 28.1072 33.9062 30.625 33.9062C32.2186 33.9062 33.7127 33.4775 35.0011 32.7316C36.8473 33.8013 38.9998 34.1567 41.1513 33.7302C42.9527 33.3714 44.5506 32.433 45.7658 31.1325C46.585 32.2459 47.0312 33.5825 47.0312 35C47.0312 36.4175 46.585 37.753 45.7658 38.8686C44.5506 37.5681 42.9527 36.6286 41.1513 36.2709C39.0053 35.8444 36.8484 36.1987 35.0011 37.2695C33.7127 36.5214 32.2186 36.0938 30.625 36.0938C28.1072 36.0938 25.8409 37.1689 24.2441 38.8762C23.4205 37.7584 22.9688 36.4153 22.9688 35ZM44.2969 49.1805C41.8283 51.9761 40.4688 55.4214 40.4688 58.8798V66.7188H29.5312V58.8798C29.5312 57.7631 29.377 56.6048 29.073 55.4367C28.9975 55.1436 28.7973 54.8975 28.5316 54.7531C28.3019 54.6284 28.0328 54.5923 27.7791 54.6459C27.6369 54.6733 27.4903 54.6875 27.3438 54.6875C26.1373 54.6875 25.1562 53.7064 25.1562 52.5C25.1562 51.9006 25.4002 51.3384 25.8431 50.9173C26.0531 50.7172 26.1767 50.4416 26.1844 50.1517C26.1909 49.8608 26.0827 49.5797 25.8825 49.3697C24.7089 48.1403 24.0625 46.5336 24.0625 44.8438C24.0625 41.2245 27.0058 38.2812 30.625 38.2812C34.2442 38.2812 37.1875 41.2245 37.1875 44.8438H39.375C39.375 42.4834 38.4355 40.3386 36.9108 38.7625C38.0997 38.2791 39.4133 38.1544 40.7236 38.4158C43.3005 38.9288 45.3502 41.0112 45.8227 43.5969C46.1934 45.628 45.6378 47.6634 44.2969 49.1805Z" fill="white"/>
<path d="M30.625 30.625V28.4375C28.8159 28.4375 27.3438 26.9653 27.3438 25.1562H25.1562C25.1562 28.1717 27.6095 30.625 30.625 30.625Z" fill="white"/>
<path d="M25.1562 44.8438H27.3438C27.3438 43.0347 28.8159 41.5625 30.625 41.5625V39.375C27.6095 39.375 25.1562 41.8283 25.1562 44.8438Z" fill="white"/>
<path d="M15.6291 22.6488L17.1759 21.102L20.4574 24.3835L18.9106 25.9303L15.6291 22.6488Z" fill="white"/>
<path d="M15.6269 47.348L18.9085 44.0664L20.4552 45.6132L17.1737 48.8948L15.6269 47.348Z" fill="white"/>
<path d="M13.7146 30.5096L14.6924 28.554L19.0652 30.7404L18.0873 32.696L13.7146 30.5096Z" fill="white"/>
<path d="M13.7157 39.4772L18.0884 37.2908L19.0663 39.2465L14.6935 41.4329L13.7157 39.4772Z" fill="white"/>
<path d="M49.5321 24.3857L52.8136 21.1042L54.3604 22.651L51.0789 25.9325L49.5321 24.3857Z" fill="white"/>
<path d="M49.5288 45.6186L51.0756 44.0718L54.3571 47.3533L52.8103 48.9001L49.5288 45.6186Z" fill="white"/>
<path d="M50.8889 30.7393L55.2617 28.5529L56.2395 30.5085L51.8667 32.6949L50.8889 30.7393Z" fill="white"/>
<path d="M50.89 39.2739L51.8678 37.3182L56.2406 39.5046L55.2628 41.4603L50.89 39.2739Z" fill="white"/>
</svg>
