<svg width="70" height="70" viewBox="0 0 70 70" fill="none" xmlns="http://www.w3.org/2000/svg">
<g clip-path="url(#clip0)">
<path d="M39.3446 25.7987C39.4054 25.7987 39.4679 25.7934 39.5299 25.7816C40.2498 25.6508 40.9644 25.4719 41.6538 25.2508C42.1948 25.0777 42.4928 24.4988 42.3193 23.9578C42.1462 23.4168 41.5668 23.1193 41.0258 23.2924C40.4212 23.4862 39.7942 23.6427 39.1619 23.7581C38.6028 23.8595 38.2327 24.3952 38.3341 24.9538C38.4244 25.4505 38.857 25.7987 39.3446 25.7987Z" fill="white"/>
<path d="M44.2232 24.0326C44.3973 24.0326 44.5741 23.9882 44.7353 23.8953C45.9284 23.208 46.5821 22.6061 46.6094 22.581C47.0243 22.1954 47.0484 21.5481 46.6644 21.1316C46.2804 20.715 45.6304 20.6888 45.2123 21.0712C45.2075 21.076 44.683 21.5519 43.7089 22.1126C43.217 22.3962 43.0477 23.0248 43.3308 23.5172C43.5214 23.8478 43.8675 24.0326 44.2232 24.0326Z" fill="white"/>
<path d="M34.1717 26.0604C34.3597 26.0567 34.5514 26.0502 34.742 26.0406H35.4475C35.6985 26.0535 35.9506 26.0604 36.199 26.0631H36.2086C36.772 26.0631 37.2313 25.6086 37.2366 25.0441C37.242 24.4758 36.7859 24.0112 36.2176 24.0064C35.9896 24.0043 35.7568 23.9973 35.526 23.9856C35.5084 23.9845 35.4908 23.984 35.4732 23.984H34.7159C34.6988 23.984 34.6812 23.9845 34.6635 23.9856C34.4846 23.9947 34.3079 24.0005 34.1332 24.0037C33.565 24.015 33.1137 24.4839 33.1244 25.0516C33.1351 25.6193 33.604 26.0732 34.1717 26.0604Z" fill="white"/>
<path d="M23.7512 22.7295C24.0412 22.9719 24.6687 23.4569 25.6145 23.9861C25.7731 24.0748 25.9456 24.1175 26.1154 24.1175C26.4759 24.1175 26.8252 23.9274 27.0137 23.5909C27.2909 23.0953 27.1141 22.4683 26.6185 22.1911C25.7886 21.727 25.2588 21.3094 25.0698 21.1513C24.634 20.7871 23.9856 20.8453 23.6214 21.2811C23.2572 21.7169 23.3154 22.3652 23.7512 22.7295Z" fill="white"/>
<path d="M28.7099 25.3058C29.4015 25.5194 30.1177 25.6897 30.8392 25.8136C30.8979 25.8233 30.9561 25.8281 31.0138 25.8281C31.5051 25.8281 31.9404 25.474 32.0258 24.973C32.122 24.4133 31.7455 23.882 31.1858 23.7864C30.5518 23.6774 29.9227 23.5279 29.316 23.3404C28.7734 23.1727 28.1977 23.4771 28.03 24.0197C27.8629 24.5623 28.1673 25.1386 28.7099 25.3058Z" fill="white"/>
<path d="M33.518 31.8068C34.0862 31.8068 34.5466 31.3465 34.5466 30.7782C34.5466 30.476 34.7923 30.2298 35.0951 30.2298C35.3974 30.2298 35.6436 30.476 35.6436 30.7782C35.6436 31.3465 36.1039 31.8068 36.6716 31.8068C37.2399 31.8068 37.7002 31.3465 37.7002 30.7782C37.7002 29.3416 36.5317 28.1731 35.0951 28.1731C33.6585 28.1731 32.4899 29.3416 32.4899 30.7782C32.4899 31.3465 32.9503 31.8068 33.518 31.8068Z" fill="white"/>
<path d="M33.8844 20.0934V20.8207C33.8844 21.3884 34.3447 21.8488 34.9124 21.8488C35.4807 21.8488 35.941 21.3884 35.941 20.8207V20.0928C36.1376 20.2792 36.3918 20.3748 36.6471 20.3748C36.8927 20.3748 37.1395 20.2872 37.3365 20.1088C37.7574 19.7281 37.7905 19.0776 37.4092 18.6567L35.6772 16.7416C35.4823 16.5264 35.2056 16.403 34.9151 16.403H34.9146C34.624 16.403 34.3474 16.5258 34.1525 16.7405L32.4168 18.6557C32.0355 19.0765 32.067 19.727 32.4878 20.1083C32.8889 20.4715 33.4977 20.4592 33.8844 20.0934Z" fill="white"/>
<path d="M58.9974 38.4132C58.992 38.3737 58.9851 38.3341 58.9755 38.2952C58.6657 37.0732 58.2828 35.847 57.8374 34.6497C56.9872 32.3682 55.9356 30.1748 54.9695 27.9451C53.2883 24.0641 51.6354 19.9006 51.4939 15.4257C51.4575 14.2674 51.4923 13.046 51.5975 11.7957C51.645 11.2302 51.2247 10.7324 50.6586 10.6849C50.093 10.6363 49.5953 11.0571 49.5477 11.6232C49.4361 12.952 49.3993 14.2535 49.4383 15.4903C49.591 20.3289 51.323 24.7018 53.0837 28.7665C53.1836 28.9967 53.2851 29.2274 53.3866 29.4581C50.3552 30.6939 46.2361 31.8149 41.3836 32.7196C37.1549 33.5079 33.0432 33.5079 28.814 32.7196C23.9584 31.8138 19.8365 30.6923 16.8041 29.4549C16.9056 29.2252 17.0065 28.9956 17.1059 28.766C18.8667 24.7018 20.5986 20.3289 20.7514 15.4903C20.8859 11.2334 20.15 6.54541 18.4362 0.737534C18.2755 0.192795 17.7035 -0.118561 17.1588 0.0421909C16.614 0.202942 16.3027 0.775452 16.4634 1.31966C18.1137 6.91124 18.8229 11.3936 18.6958 15.4252C18.5542 19.9017 16.9003 24.0668 15.2185 27.9489C14.2546 30.1737 13.2099 32.3666 12.3602 34.6491C11.9164 35.8422 11.5682 36.9589 11.2515 38.1867C11.2419 38.2231 11.2318 38.2588 11.2227 38.2952C11.2216 38.2984 11.2211 38.3016 11.2206 38.3053C8.85843 47.5947 10.2844 57.8096 15.5438 69.3965C15.7157 69.7757 16.0896 70 16.4805 70C16.6226 70 16.7673 69.9707 16.9051 69.9082C17.4226 69.6732 17.6512 69.0638 17.4167 68.5463C12.5333 57.7883 11.0748 48.3082 12.999 39.7189C14.419 39.9609 15.9048 40.2509 17.5134 40.6001C19.3356 40.9959 21.0798 41.6175 22.6975 42.448C23.2022 42.707 23.8222 42.5078 24.0817 42.0026C24.3413 41.4974 24.1421 40.8773 23.6369 40.6178C21.8601 39.7061 19.9465 39.0236 17.9497 38.59C16.3748 38.2482 14.9125 37.9608 13.5133 37.7189C13.8706 36.4916 14.3064 35.2729 14.7891 34.0825C15.1213 33.2627 15.4754 32.4515 15.8332 31.6429C15.8781 31.5404 15.9235 31.4384 15.9689 31.3364C19.1567 32.648 23.3437 33.792 28.437 34.7415C32.9199 35.5773 37.2778 35.5773 41.7607 34.7415C46.8502 33.7925 51.0351 32.6496 54.2224 31.3391C54.8088 32.6598 55.3983 34.0131 55.902 35.3664C56.1909 36.1434 56.4472 36.929 56.6769 37.7205C55.2803 37.9619 53.8207 38.2487 52.2479 38.59C48.4775 39.4087 45.0622 41.0883 42.3716 43.4472C40.1766 45.372 38.2444 47.5771 36.3763 49.7096C35.957 50.1875 35.5293 50.6757 35.0988 51.1606C34.6684 50.6757 34.2406 50.1875 33.8219 49.7096C31.9538 47.5771 30.0215 45.372 27.826 43.4472C27.3988 43.0728 26.7494 43.1156 26.375 43.5423C26.0006 43.9695 26.0428 44.6195 26.47 44.9933C28.5636 46.8294 30.4504 48.9827 32.2753 51.065C32.859 51.7315 33.4609 52.4178 34.0665 53.0912V68.9714C34.0665 69.5391 34.5268 69.9995 35.0951 69.9995C35.6628 69.9995 36.1231 69.5391 36.1231 68.9714V53.1008C36.732 52.4242 37.3365 51.7347 37.9234 51.065C39.7478 48.9827 41.6341 46.8294 43.7276 44.9938C46.1565 42.864 49.254 41.3446 52.6843 40.6001C54.2902 40.2514 55.7733 39.9619 57.1912 39.72C59.1149 48.3093 57.6563 57.7888 52.7735 68.5463C52.5385 69.0638 52.7676 69.6732 53.2845 69.9082C53.4223 69.9707 53.5671 70 53.7091 70C54.1001 70 54.4739 69.7757 54.6459 69.3965C59.8855 57.8545 61.321 47.6743 58.9974 38.4132Z" fill="white"/>
<path d="M51.0575 7.96065C51.1248 7.97347 51.1916 7.98041 51.2578 7.98041C51.739 7.98041 52.1689 7.64075 52.2656 7.15102C52.6218 5.35124 53.0992 3.44412 53.7262 1.32018C53.887 0.775437 53.5756 0.203461 53.0309 0.0427097C52.4861 -0.118042 51.9141 0.193314 51.7539 0.738053C51.1088 2.92288 50.6164 4.89035 50.2479 6.75208C50.1379 7.3091 50.5 7.8501 51.0575 7.96065Z" fill="white"/>
<path d="M59 27.5C56.6667 23.5 53.1 12.8 57.5 2" stroke="white" stroke-width="1.2" stroke-linecap="round" stroke-linejoin="round" stroke-dasharray="2 2"/>
<path d="M11 27.5C13.3333 23.5 16.9 12.8 12.5 2" stroke="white" stroke-width="1.2" stroke-linecap="round" stroke-linejoin="round" stroke-dasharray="2 2"/>
</g>
<defs>
<clipPath id="clip0">
<rect width="70" height="70" fill="white"/>
</clipPath>
</defs>
</svg>
