<svg width="70" height="70" viewBox="0 0 70 70" fill="none" xmlns="http://www.w3.org/2000/svg">
<path d="M57.2039 8.2617L62.3292 3.11109L63.8083 4.59751L58.683 9.74812C58.2703 10.1629 58.2703 10.8543 58.683 11.2691C58.8894 11.4765 59.1646 11.5802 59.4398 11.5802C59.715 11.5802 59.9902 11.4765 60.1965 11.2691L66.0786 5.358C66.4914 4.94319 66.4914 4.25183 66.0786 3.83701L63.086 0.829605C62.8796 0.622197 62.6044 0.518494 62.3292 0.518494C62.054 0.518494 61.7789 0.622197 61.5725 0.829605L55.7248 6.74072C55.312 7.15553 55.312 7.84689 55.7248 8.2617C56.1376 8.67652 56.7911 8.67652 57.2039 8.2617Z" fill="white"/>
<path d="M68.9337 67.8568H67.2482L58.9926 52.0938C63.0172 47.6691 65.2531 41.9309 65.2531 35.8815C65.2531 30.2123 63.258 24.716 59.6118 20.3951C59.6118 20.3605 59.6118 20.3259 59.6118 20.2568C59.6118 18.7358 59.027 17.3877 58.0983 16.316L59.3022 15.1407C59.5086 14.9333 59.6118 14.6568 59.6118 14.3802C59.6118 14.1037 59.5086 13.8272 59.3022 13.6197L53.2826 7.60493C52.8698 7.19012 52.1818 7.19012 51.7691 7.60493L32.575 26.9284C32.3686 27.1358 32.2654 27.4123 32.2654 27.6889C32.2654 27.9654 32.3686 28.242 32.575 28.4494L38.5946 34.4988C38.801 34.7062 39.0762 34.8099 39.3514 34.8099C39.6266 34.8099 39.9017 34.7062 40.1081 34.4988L49.8428 24.716C50.5307 25.3383 51.3907 25.7877 52.3194 26.0296C52.3538 26.1333 52.4226 26.237 52.4914 26.3407C54.7617 29.0025 56 32.3901 56 35.916C56 44.0395 49.43 50.642 41.3465 50.642C39.6953 50.642 38.0442 50.3654 36.4963 49.8123H42C42.5848 49.8123 43.0664 49.3284 43.0664 48.7407C43.0664 48.1531 42.5848 47.6691 42 47.6691H16.2359C15.6511 47.6691 15.1696 48.1531 15.1696 48.7407C15.1696 49.3284 15.6511 49.8123 16.2359 49.8123H21.8428C25.9361 55.6198 32.3686 59.2839 39.3858 59.8716L33.7789 67.8568H15.3759C14.7912 67.8568 14.3096 68.3407 14.3096 68.9284C14.3096 69.516 14.7912 70 15.3759 70H68.9337C69.5184 70 70 69.516 70 68.9284C70 68.3407 69.5184 67.8568 68.9337 67.8568ZM47.8477 20.3259C47.8477 21.3284 48.0885 22.2272 48.5012 23.0568L39.3514 32.2519L34.8108 27.6889L52.5602 9.85185L57.1008 14.4148L56.4816 15.037C55.656 14.6222 54.7273 14.3802 53.7641 14.3802C50.4963 14.3802 47.8477 17.042 47.8477 20.3259ZM49.946 20.3259C49.946 18.2173 51.6315 16.5235 53.7297 16.5235C55.828 16.5235 57.5135 18.2173 57.5135 20.3259C57.5135 22.4346 55.828 24.1284 53.7297 24.1284C51.6659 24.1284 49.946 22.4 49.946 20.3259ZM36.3243 67.8568L42.2064 59.4914C42.4472 59.1802 42.4472 58.7309 42.2752 58.3852C42.1032 58.0395 41.7248 57.7975 41.3465 57.7975C34.8108 57.7975 28.6192 54.8247 24.4914 49.7778H31.9558C32.0246 49.8815 32.1278 49.9506 32.231 50.0197C34.9484 51.7827 38.113 52.716 41.3465 52.716C50.5995 52.716 58.1327 45.1457 58.1327 35.8469C58.1327 32.321 57.032 28.8642 55.0025 26.0296C56.7568 25.6494 58.2015 24.5086 58.9926 22.9531C61.7101 26.6864 63.1548 31.1802 63.1548 35.8469C63.1548 41.5852 60.9533 47.0123 56.9632 51.1259L56.9288 51.1605C56.9288 51.1605 56.9288 51.1605 56.8944 51.1951C56.86 51.2296 54.8649 53.5457 50.8747 54.8938C50.5995 54.9975 50.3587 55.2049 50.2556 55.4815C50.1524 55.758 50.1524 56.0691 50.2899 56.3457L55.828 67.7531H36.3243V67.8568ZM58.1671 67.8568L52.6978 56.5531C54.9337 55.6198 56.4816 54.5136 57.4447 53.6839L64.8747 67.8568H58.1671Z" fill="white"/>
<path d="M31.6806 32.6321L34.6388 35.6049C34.8452 35.8123 35.1204 35.916 35.3956 35.916C35.6708 35.916 35.946 35.8123 36.1523 35.6049C36.5651 35.1901 36.5651 34.4988 36.1523 34.0839L33.1597 31.1111C32.7469 30.6963 32.059 30.6963 31.6462 31.1111C31.2678 31.5259 31.2678 32.2173 31.6806 32.6321Z" fill="white"/>
<path d="M21.774 39.4074L27.0025 45.4222C27.2088 45.6642 27.5184 45.7679 27.7936 45.7679C27.9656 45.7679 28.1032 45.7333 28.2752 45.6642C28.7224 45.4568 28.9287 44.9728 28.8256 44.4889L27.4152 37.921C28.5504 37.437 29.6511 36.8494 30.683 36.1235C31.1646 35.7778 31.3022 35.121 30.9582 34.637C30.6143 34.1531 29.9607 34.0148 29.4791 34.3605C28.344 35.121 27.1057 35.7778 25.7985 36.2617C25.317 36.4346 25.0074 36.9531 25.145 37.4716L25.8673 40.8593L22.9779 37.5407C22.7371 37.2642 22.3931 37.1259 22.0491 37.1951C21.258 37.2988 20.4668 37.3679 19.6757 37.3679C10.0098 37.3679 2.13268 29.4519 2.13268 19.7383C2.13268 10.0247 10.0098 2.10864 19.6757 2.10864C23.8722 2.10864 27.9312 3.62963 31.1302 6.36049C34.2604 9.09136 36.3587 12.8247 37.0123 16.9383C37.1155 17.5259 37.6315 17.9062 38.2162 17.837C38.801 17.7333 39.1794 17.2148 39.1106 16.6272C38.3882 12.0296 36.0491 7.81235 32.5061 4.77037C28.9287 1.69383 24.3882 0 19.6757 0C8.8059 0 0 8.84938 0 19.7728C0 30.6617 8.8059 39.5457 19.6757 39.5457C20.3636 39.5111 21.0516 39.4765 21.774 39.4074Z" fill="white"/>
<path d="M18.4718 24.4395V22.0543H16.0983C15.5823 22.0543 15.1352 21.6395 15.1352 21.0864C15.1352 20.5333 15.5479 20.1185 16.0983 20.1185H18.4718V17.7333C18.4718 17.2148 18.8845 16.7654 19.4349 16.7654C19.9853 16.7654 20.3981 17.1802 20.3981 17.7333V20.1185H22.7715C23.2875 20.1185 23.7347 20.5333 23.7347 21.0864C23.7347 21.6395 23.3219 22.0543 22.7715 22.0543H20.3981V24.4395C20.3981 24.958 19.9853 25.4074 19.4349 25.4074C18.8845 25.4074 18.4718 24.9926 18.4718 24.4395ZM24.4914 11.4765C22.3587 8.57284 20.2605 6.25679 20.1917 6.15309C20.0197 5.94568 19.7445 5.84198 19.5037 5.84198C19.2285 5.84198 18.9877 5.94568 18.8157 6.15309C18.7126 6.25679 16.6487 8.53828 14.516 11.442C11.5578 15.4519 10.0786 18.5284 10.0786 20.6025V20.879C10.0786 26.1333 14.3096 30.3852 19.5381 30.3852C21.1548 30.3852 22.7371 29.9704 24.1474 29.1753C24.5946 28.8988 24.7666 28.3457 24.5258 27.8617C24.2506 27.4123 23.7003 27.2395 23.2187 27.4815C22.0836 28.1037 20.8108 28.4494 19.5381 28.4494C15.3759 28.4494 12.0049 25.0272 12.0049 20.8444V20.5679C12.0049 18.9778 13.4497 16.1086 16.0639 12.5482C17.4054 10.7161 18.7469 9.09136 19.5381 8.1926C20.3293 9.09136 21.6708 10.7161 23.0123 12.5482C25.5922 16.1778 27.0025 19.0123 27.0025 20.637V20.9136C27.0025 22.158 26.7273 23.3333 26.1425 24.4395C25.9017 24.9235 26.0737 25.4765 26.5553 25.7185C27.0369 25.9605 27.5872 25.7877 27.828 25.3037C28.516 23.9556 28.8944 22.4346 28.8944 20.9136V20.637C28.9288 18.563 27.4496 15.4864 24.4914 11.4765Z" fill="white"/>
</svg>
