<svg width="70" height="70" viewBox="0 0 70 70" fill="none" xmlns="http://www.w3.org/2000/svg">
<path d="M66.9347 21.6752L66.5497 21.0339C64.4452 17.5293 60.7487 15.1832 56.6785 14.7643C56.1806 14.7056 55.7369 14.6774 55.3226 14.6774C49.0971 14.6774 44.0323 19.7423 44.0323 25.9677C44.0323 28.5419 44.8993 30.9185 46.3547 32.8198C45.5485 33.8631 44.9479 35.0305 44.5561 36.2668L40.8958 39.9271C40.381 40.4419 39.9271 40.9997 39.5161 41.5822V37.2581H37.2581V47.4193H37.3269C37.2829 47.845 37.2581 48.2752 37.2581 48.7098V70H39.5161V48.7098C39.5161 45.9956 40.5729 43.444 42.4923 41.5247L44.0514 39.9666C44.0853 41.029 44.2614 42.0564 44.5742 43.024L44.0898 43.5084C42.5961 44.9998 41.7742 46.9847 41.7742 49.096V70H44.0323V49.096C44.0323 47.6451 44.5877 46.2858 45.5779 45.2358C47.5379 48.5619 51.1666 50.8064 55.3226 50.8064C55.7369 50.8064 56.1806 50.7782 56.6616 50.7218C60.7487 50.3006 64.4452 47.9556 66.5497 44.45L66.9347 43.8087C68.9398 40.4656 70 36.6393 70 32.7419C70 28.8434 68.9398 25.016 66.9347 21.6752ZM64.9984 42.6458L64.6134 43.2871C62.8735 46.1853 59.8139 48.125 56.4132 48.4761C56.0553 48.519 55.6918 48.5484 55.3226 48.5484C50.3424 48.5484 46.2903 44.5369 46.2903 39.6076C46.2903 37.7639 46.865 35.9868 47.9263 34.4919C49.9089 36.2137 52.4955 37.2581 55.3226 37.2581V35C50.3424 35 46.2903 30.9479 46.2903 25.9677C46.2903 20.6184 51.0063 16.3721 56.4302 17.0089C59.8139 17.3577 62.8735 19.2963 64.6134 22.1956L64.9984 22.8369C66.7935 25.8277 67.7419 29.2521 67.7419 32.7419C67.7419 36.2306 66.7935 39.655 64.9984 42.6458Z" fill="white"/>
<path d="M63.0621 24.001L62.676 23.3563C61.3008 21.0655 58.8802 19.5311 56.2123 19.2568C55.8679 19.2173 55.5992 19.1935 55.3226 19.1935V21.4516C55.5179 21.4516 55.7098 21.4708 55.9673 21.5013C57.9442 21.7056 59.7292 22.8335 60.7408 24.5169L61.1269 25.1616C61.7615 26.2206 62.2639 27.3587 62.6161 28.5487L64.7816 27.9052C64.374 26.5345 63.796 25.2203 63.0621 24.001Z" fill="white"/>
<path d="M65.3123 30.3235L63.0757 30.6431C63.175 31.3363 63.2258 32.0419 63.2258 32.7419H65.4839C65.4839 31.9347 65.4252 31.1218 65.3123 30.3235Z" fill="white"/>
<path d="M19.1935 25.9677C19.1935 27.2243 18.6606 28.4347 17.7314 29.2893L19.2602 30.9524C20.6523 29.671 21.4516 27.8543 21.4516 25.9677C21.4516 22.2318 18.4134 19.1935 14.6774 19.1935V21.4516C17.1681 21.4516 19.1935 23.4771 19.1935 25.9677Z" fill="white"/>
<path d="M16.4827 30.1068C15.9126 30.3574 15.3052 30.4839 14.6774 30.4839V32.7419C15.619 32.7419 16.5313 32.5511 17.3882 32.1752L16.4827 30.1068Z" fill="white"/>
<path d="M39.5161 0H37.2581V35H39.5161V0Z" fill="white"/>
<path d="M30.4839 41.5823C30.0729 40.9997 29.619 40.4419 29.1042 39.9271L25.445 36.2668C25.0532 35.0305 24.4514 33.8619 23.6465 32.8187C25.1006 30.9185 25.9677 28.5419 25.9677 25.9677C25.9677 19.7423 20.9029 14.6774 14.6774 14.6774C14.2631 14.6774 13.8194 14.7056 13.3373 14.7621C9.25016 15.1832 5.55371 17.5282 3.44919 21.0339L3.06419 21.6752C1.05903 25.0182 0 28.8445 0 32.7419C0 36.6382 1.05903 40.4645 3.06532 43.8087L3.45032 44.45C5.55484 47.9556 9.25129 50.3006 13.3215 50.7195C13.8194 50.7782 14.2631 50.8064 14.6774 50.8064C18.8334 50.8064 22.4621 48.5619 24.4221 45.2358C25.4123 46.2869 25.9677 47.6463 25.9677 49.096V70H28.2258V49.096C28.2258 46.9847 27.4027 44.9998 25.9102 43.5073L25.4258 43.0229C25.7397 42.0542 25.9147 41.0279 25.9485 39.9655L27.5077 41.5235C29.426 43.4429 30.4839 45.9945 30.4839 48.7087V70H32.7419V48.7098C32.7419 48.2763 32.7171 47.8461 32.6731 47.4194H32.7419V0H30.4839V41.5823ZM13.5698 48.475C10.1861 48.1261 7.12645 46.1876 5.38661 43.2882L5.00161 42.6458C3.20645 39.6539 2.25806 36.2295 2.25806 32.7419C2.25806 29.2532 3.20645 25.8289 5.00161 22.8381L5.38661 22.1968C7.12645 19.2985 10.1861 17.3589 13.5868 17.0077C13.9447 16.9648 14.3082 16.9355 14.6774 16.9355C19.6576 16.9355 23.7097 20.9876 23.7097 25.9677C23.7097 30.9479 19.6576 35 14.6774 35V37.2581C17.5045 37.2581 20.0911 36.2137 22.0748 34.4908C23.135 35.9879 23.7097 37.765 23.7097 39.6076C23.7097 44.9027 19.0039 49.1163 13.5698 48.475Z" fill="white"/>
</svg>
