<svg width="74" height="70" viewBox="0 0 74 70" fill="none" xmlns="http://www.w3.org/2000/svg">
<path d="M73.1067 46.2895L63.9781 44.0276C59.0836 42.8187 55.471 38.607 55.0048 33.5764L53.8395 21.1363C57.6852 18.0555 60.4043 13.6878 61.4531 8.85216C61.4531 8.81316 61.4531 8.77417 61.4531 8.77417L62.4243 1.36469C62.502 0.701741 62.0747 0.116783 61.4143 0.0387888C60.7539 -0.0392057 60.1712 0.389764 60.0936 1.05272L59.1224 8.38419C58.1513 12.7519 55.7041 16.6516 52.2468 19.3814L50.2269 20.9803C46.9639 23.5541 43.0017 24.997 38.8453 25.114C34.6888 25.231 30.6878 23.9831 27.2694 21.5653L23.9676 19.2254C20.0831 16.4566 17.3639 12.3619 16.3151 7.68224L15.4605 1.05272C15.3439 0.389764 14.7613 -0.0782029 14.1009 -0.000208438C13.4405 0.077786 13.0132 0.662744 13.0909 1.3257L13.9455 7.99422C13.9455 8.03322 13.9455 8.07222 13.9455 8.11121C15.1109 13.4148 18.1408 18.0165 22.5691 21.1363L23.0353 21.4483L22.2584 33.3034C21.9088 38.49 18.335 42.8187 13.324 44.1056L0.893555 47.2644C0.272033 47.4204 -0.116419 48.0834 0.038962 48.7073C0.155497 49.2533 0.660484 49.6042 1.16547 49.6042C1.24316 49.6042 1.3597 49.6042 1.43739 49.5653L13.8678 46.4065C19.8888 44.8856 24.2006 39.699 24.5891 33.4594L25.2495 23.0471L25.8321 23.4761C29.5224 26.0889 33.7954 27.4538 38.2626 27.4538C38.4568 27.4538 38.651 27.4538 38.8064 27.4538C43.4678 27.3368 47.8962 25.738 51.5865 22.8522L52.5964 33.7714C53.1791 39.8159 57.4909 44.8466 63.3566 46.3285L72.4852 48.5903C72.5629 48.6293 72.6794 48.6293 72.7571 48.6293C73.3009 48.6293 73.7671 48.2783 73.9224 47.7324C74.1555 47.1084 73.7671 46.4455 73.1067 46.2895Z" fill="white"/>
<path d="M48.2457 36.9694C47.663 35.9164 46.6142 35.2925 45.41 35.3315C45.0215 35.3315 44.5942 35.4095 44.2446 35.5655L44.7108 32.9136C44.8273 32.2507 44.4 31.6657 43.7396 31.5487C43.0793 31.4318 42.4966 31.8607 42.3801 32.5237L41.137 39.5822C41.137 39.6212 41.137 39.6602 41.137 39.6992L40.3213 41.1811C40.2047 41.415 39.9717 41.571 39.6997 41.571H38.0683C37.7963 41.571 37.5633 41.415 37.4467 41.1811L36.7087 39.8162C36.7087 39.7382 36.7087 39.6602 36.7087 39.5822L35.4656 32.5237C35.3491 31.8607 34.7276 31.4318 34.106 31.5487C33.4457 31.6657 33.0184 32.2897 33.1349 32.9136L33.6011 35.5655C33.2126 35.4095 32.8242 35.3315 32.3969 35.3315C32.3969 35.3315 32.3969 35.3315 32.358 35.3315C31.1538 35.3315 30.105 35.9554 29.5223 36.9694C27.7354 40.1281 26.2982 45.3928 29.4835 52.4123C30.0273 53.5822 31.1538 54.3231 32.4357 54.3231C33.0572 54.3231 33.6399 54.1671 34.1449 53.8552V68.8301C34.1449 69.493 34.6887 70 35.3102 70C35.9318 70 36.4756 69.454 36.4756 68.8301V66.9192H41.0593V68.8301C41.0593 69.493 41.6032 70 42.2247 70C42.885 70 43.39 69.454 43.39 68.8301V53.7382C43.9339 54.1281 44.5554 54.3231 45.2546 54.3231C46.5365 54.3231 47.663 53.5822 48.2068 52.4123C51.4698 45.3928 50.0326 40.1671 48.2457 36.9694ZM36.5144 55.2201H41.0982V58.6908H36.5144V55.2201ZM41.0982 49.6825V52.8412H36.5144V49.9554L37.5244 47.7326C37.641 47.4596 37.9129 47.3036 38.1848 47.3036H39.6221C39.894 47.3036 40.1659 47.4596 40.2824 47.7326L41.0982 49.5655C41.0982 49.6435 41.0982 49.6435 41.0982 49.6825ZM36.5144 64.5404V61.0696H41.0982V64.5404H36.5144ZM46.1092 51.4373C45.8761 51.9053 45.4877 51.9443 45.2934 51.9443C45.1381 51.9443 44.7108 51.9053 44.4777 51.4373L42.3801 46.7577C41.8751 45.6657 40.7874 44.9248 39.5832 44.9248H38.1459C36.9417 44.9248 35.8152 45.6267 35.3491 46.7577L34.3391 49.0585C34.3003 49.1365 34.2614 49.2145 34.2226 49.2925L33.2515 51.4373C33.0572 51.9053 32.6299 51.9443 32.4357 51.9443C32.2803 51.9443 31.853 51.9053 31.62 51.4373C28.8231 45.3148 30.0662 40.8301 31.5423 38.1393C31.7753 37.7493 32.1638 37.7103 32.3192 37.6713C32.4745 37.6713 32.863 37.7103 33.0961 38.1393L35.3491 42.273C35.8929 43.2479 36.9417 43.8719 38.0683 43.8719H39.6609C40.7874 43.8719 41.8362 43.2479 42.3801 42.273L44.6331 38.1393C44.8661 37.7103 45.2546 37.6713 45.41 37.6713C45.5654 37.6713 45.9538 37.7103 46.1869 38.1393C47.7018 40.8301 48.906 45.3148 46.1092 51.4373Z" fill="white"/>
</svg>
