<svg width="78" height="70" viewBox="0 0 78 70" fill="none" xmlns="http://www.w3.org/2000/svg">
<g clip-path="url(#clip0)">
<path d="M42.6612 13.3958C42.701 12.72 42.2235 12.1238 41.5469 12.084C40.8704 12.0443 40.2735 12.5213 40.2337 13.197C39.9949 16.1386 37.4082 18.3248 34.4633 18.0863C33.349 18.0068 32.3143 17.5696 31.4786 16.8541C31.6775 15.0256 31.2398 13.1573 30.0857 11.5673C29.6877 11.0108 28.9316 10.8915 28.3745 11.289C27.8173 11.6865 27.698 12.4418 28.0959 12.9983C29.8071 15.4231 29.2102 18.7621 26.8224 20.4713C25.7877 21.1868 24.5541 21.5446 23.3204 21.4253C22.6439 21.3856 22.0469 21.8626 22.0071 22.5383C21.9673 23.2141 22.4449 23.8103 23.1214 23.8501C23.3204 23.8501 23.5194 23.8898 23.7184 23.8898C25.3102 23.8898 26.902 23.3731 28.2153 22.4588C29.3694 21.6241 30.2449 20.5508 30.7622 19.3583C31.7969 19.9943 32.9908 20.3918 34.2245 20.5111C34.4235 20.5111 34.6622 20.5508 34.8612 20.5508C34.901 20.5508 34.9806 20.5508 35.0204 20.5508C37.5673 23.5718 35.9357 26.4736 35.8561 26.5928C35.498 27.1493 35.6969 27.9046 36.2541 28.2623C36.4531 28.3816 36.6918 28.4611 36.8908 28.4611C37.2888 28.4611 37.7265 28.2623 37.9255 27.8648C38.0051 27.7456 38.6418 26.6326 38.8408 24.9631C38.9602 23.6911 38.8408 21.9023 37.6469 20.0341C40.3929 19.0006 42.4224 16.4963 42.6612 13.3958Z" fill="white"/>
<path d="M40.552 37.4446C39.8755 37.4049 39.2785 37.8819 39.2387 38.5576C39 41.5389 36.3734 43.7252 33.4285 43.4867C32.1949 43.3674 31.001 42.8507 30.1255 41.9762C29.6479 41.4991 28.852 41.4991 28.3745 42.0159C27.8969 42.4929 27.8969 43.2879 28.4143 43.7649C29.7275 45.0369 31.4387 45.7922 33.2296 45.9512C33.4285 45.9512 33.6673 45.9909 33.8663 45.9909C36.1347 45.9909 38.204 45.0369 39.6367 43.4469C40.0347 43.5662 41.7061 44.2419 42.1438 46.1897C42.2632 46.7462 42.7806 47.1437 43.3377 47.1437C43.4173 47.1437 43.4969 47.1437 43.6163 47.1039C44.2928 46.9449 44.6908 46.3089 44.5316 45.6332C43.9745 43.0892 42.0643 41.8569 40.9898 41.3401C41.3479 40.5451 41.5867 39.7104 41.6663 38.7961C41.7459 38.1204 41.2285 37.5241 40.552 37.4446Z" fill="white"/>
<path d="M75.9704 30.6871C75.9306 30.6474 75.8908 30.5679 75.851 30.5281C77.0051 28.4214 77.1643 25.8376 76.0898 23.4923C74.9357 20.9881 72.6275 19.4378 70.0806 19.0801C69.2847 14.3101 66.1408 10.017 61.1663 6.91652C57.8633 4.84952 54.003 3.53776 51.8939 3.69676C50.8194 1.98751 49.1479 0.755253 47.1979 0.278251C45.1684 -0.238501 43.0592 0.0795002 41.2684 1.15275C40.9898 1.31175 40.751 1.47076 40.5122 1.66951C35.6571 0.159 29.051 -0.795003 23.599 2.54401C22.4847 3.21976 21.5694 3.97501 20.853 4.69052C16.7541 4.33277 13.451 5.20727 11.0235 7.27428C8.35713 9.57978 7.60101 12.7598 7.36223 14.3101C6.08876 14.6678 4.89489 15.3436 3.93978 16.3373C2.46733 17.8081 1.67142 19.7558 1.67142 21.8626C1.67142 22.8563 1.8704 23.8501 2.22856 24.7643C1.03468 26.3941 0.238763 28.9779 0.0397832 31.8001C-0.198992 35.2186 0.477538 38.6371 1.94999 41.4196C3.38264 44.1227 5.49182 46.1897 8.19795 47.5014C10.5061 48.6144 13.1724 49.1709 16.2367 49.1709C17.2714 49.1709 18.3459 49.0914 19.4602 48.9722C21.3306 53.1857 25.9469 56.2067 31.3194 56.2067C34.7418 56.2067 38.0449 54.9744 40.4326 52.7882C41.3479 53.1062 42.9796 53.5434 45.1286 53.7819C45.6857 55.2924 47.3969 58.393 52.65 59.7842C58.9775 61.4537 63.5541 65.071 64.3102 69.0857C64.4296 69.682 64.9469 70.0795 65.5041 70.0795C65.5837 70.0795 65.6632 70.0795 65.7428 70.0397C66.4194 69.9205 66.8571 69.2845 66.7377 68.6087C65.8224 63.6797 60.5296 59.3072 53.2867 57.3992C50.1428 56.5644 48.6306 55.0539 47.9143 53.9409C47.9939 53.9409 48.0735 53.9409 48.153 53.9409C50.1428 53.9409 52.4112 53.7024 54.799 53.1062C55.4357 52.9472 55.8337 52.2714 55.6745 51.6354C55.5153 50.9994 54.8388 50.6019 54.202 50.7609C46.6408 52.7087 40.6714 50.2839 40.6316 50.2442C40.0745 50.0057 39.4775 50.2044 39.1592 50.6814C39.1194 50.7212 39.0796 50.7212 39.0398 50.7609C37.0898 52.6689 34.2643 53.7819 31.3592 53.7819C25.6684 53.7819 21.052 49.7672 21.052 44.8382C21.052 42.5724 22.0071 40.4656 23.7582 38.7961C26.8224 38.3589 29.3296 36.1726 30.2051 33.2311C31.7173 33.8274 34.2643 34.5826 37.3684 34.7019C39.7163 34.7814 42.5816 34.5031 45.6459 33.2709C46.2428 33.9069 47.8745 35.9739 47.2377 38.8756C47.0786 39.5514 47.5163 40.1874 48.1928 40.3464C48.2724 40.3464 48.352 40.3861 48.4316 40.3861C48.9888 40.3861 49.5061 39.9886 49.6255 39.4321C50.3418 36.0534 48.9092 33.5094 47.9143 32.1976C49.4663 31.3231 51.0581 30.1704 52.6102 28.6599C53.1673 30.9654 54.7194 32.3964 54.799 32.4759C55.0377 32.6746 55.3163 32.7939 55.6347 32.7939C55.953 32.7939 56.3112 32.6746 56.55 32.3964C56.9877 31.8796 56.9479 31.1244 56.4704 30.6871C56.4704 30.6871 54.8786 29.2164 54.9184 26.9903C56.0326 27.4673 57.3459 27.7058 58.8184 27.7853C58.8582 27.7853 58.8582 27.7853 58.8979 27.7853C59.5347 27.7853 60.0918 27.2686 60.1316 26.6326C60.1714 25.9568 59.6541 25.4003 58.9775 25.3606C56.5898 25.2413 54.8388 24.5258 53.7245 23.2141C52.0928 21.2663 52.3714 18.5633 52.3714 18.5236C52.451 17.8478 51.9735 17.2516 51.2969 17.1721C50.6204 17.0926 50.0235 17.5696 49.9439 18.2453C49.9439 18.4043 49.5061 22.0216 51.8541 24.8041C52.053 25.0426 52.252 25.2413 52.451 25.4401C48.3122 30.2101 43.3377 32.5156 37.6469 32.3169C33.1102 32.0784 29.8469 30.3691 29.8469 30.3691C29.4888 30.1704 29.051 30.1704 28.6928 30.3691C28.3347 30.5679 28.0959 30.9256 28.0561 31.3629C27.8571 34.3044 25.3102 36.5701 22.3255 36.3714C20.8928 36.2919 19.5796 35.6559 18.6245 34.5826C17.6694 33.5094 17.1918 32.1181 17.3112 30.6871C17.351 30.0114 16.8337 29.4151 16.1571 29.3754C15.4806 29.3356 14.8837 29.8524 14.8439 30.5281C14.7643 31.9989 15.0826 33.4696 15.7592 34.7416C12.4959 35.8546 10.4265 33.7479 10.3071 33.6286C9.82958 33.1516 9.07346 33.1119 8.59591 33.5491C8.11835 34.0261 8.07856 34.7814 8.51631 35.2981C8.59591 35.4174 9.51121 36.3316 11.0633 36.9676C11.8194 37.2459 12.7745 37.5241 13.8888 37.5241C14.9235 37.5241 16.0775 37.3254 17.3112 36.7689C18.2663 37.6434 19.3806 38.2794 20.6143 38.5974C19.2612 40.4259 18.5449 42.5724 18.5449 44.7984C18.5449 45.3947 18.5847 45.9909 18.7041 46.5474C11.6602 47.2232 6.60611 45.0767 4.05917 40.2669C2.42754 37.1266 1.59182 30.7269 3.62142 27.0301C3.7408 27.1493 3.82039 27.2686 3.93978 27.3878C4.17856 27.6263 4.49693 27.7456 4.81529 27.7456C5.13366 27.7456 5.45203 27.6263 5.6908 27.3878C6.16835 26.9108 6.16835 26.1158 5.6908 25.6388C4.65611 24.6451 4.09897 23.2936 4.09897 21.8626C4.09897 20.4316 4.65611 19.0801 5.65101 18.0863C6.64591 17.0528 7.99897 16.4963 9.43162 16.4963C9.43162 16.4963 9.43162 16.4963 9.47142 16.4963C10.9041 16.4963 12.2173 17.0528 13.252 18.0466C13.7296 18.5236 14.5255 18.5236 15.003 18.0466C15.4806 17.5696 15.4806 16.7746 15.003 16.2976C13.6102 14.9461 11.8194 14.1511 9.90917 14.0716C10.1877 12.7598 10.8643 10.6928 12.6551 9.18228C14.2071 7.83078 16.3561 7.11527 19.0224 7.11527C18.8235 7.43328 18.7439 7.67178 18.7041 7.67178C18.4255 8.26803 18.7041 9.02328 19.301 9.30153C19.4602 9.38103 19.6592 9.42078 19.8184 9.42078C20.2959 9.42078 20.7337 9.14253 20.9326 8.70528C20.9326 8.66553 22.0469 6.39977 24.8724 4.69052C28.4143 2.54401 33.15 2.22601 38.6418 3.69676C38.2041 4.37252 37.8857 5.12777 37.6867 5.96252C37.5275 6.59852 37.9255 7.27428 38.5622 7.43328C39.199 7.59228 39.8755 7.19478 40.0347 6.55877C40.3928 5.16752 41.2684 4.01476 42.502 3.25951C43.7357 2.54401 45.1684 2.30551 46.5612 2.66326C49.4265 3.37876 51.1775 6.32027 50.4612 9.18228C50.302 9.81828 50.7 10.494 51.3367 10.653C51.4561 10.6928 51.5357 10.6928 51.6551 10.6928C52.2122 10.6928 52.6898 10.335 52.849 9.77853C53.1673 8.58603 53.1673 7.39353 52.8888 6.20102C54.3612 6.39977 57.1071 7.27428 59.9724 9.06303C65.3847 12.4815 67.0959 16.6156 67.6133 19.1596C66.9765 19.2788 66.3398 19.4776 65.703 19.7558C65.1061 20.0341 64.8275 20.7496 65.1061 21.3856C65.3847 21.9818 66.101 22.2601 66.7377 21.9818C69.4041 20.7496 72.6275 21.9023 73.8612 24.5656C75.0949 27.2288 73.9408 30.4486 71.2745 31.6809C70.6775 31.9591 70.399 32.6746 70.6775 33.3106C70.8765 33.7479 71.3143 34.0261 71.7918 34.0261C71.951 34.0261 72.15 33.9864 72.3092 33.9069C73.0653 33.5491 73.702 33.1119 74.299 32.5951C76.7663 36.7291 75.6122 42.1352 71.5928 44.8779C69.5632 46.2692 67.0959 46.7859 64.7082 46.3089C62.2806 45.8717 60.2112 44.4804 58.8184 42.4532C58.4204 41.8966 57.6643 41.7376 57.1071 42.1352C56.55 42.5326 56.3908 43.2879 56.7888 43.8444C58.5398 46.4282 61.2061 48.1374 64.2704 48.7337C64.9867 48.8529 65.7428 48.9324 66.4592 48.9324C67.6928 48.9324 68.9265 48.7337 70.0806 48.3362C68.8071 50.8007 66.1806 54.0602 60.8877 54.4974C60.2112 54.5372 59.6939 55.1334 59.7735 55.8092C59.8133 56.4452 60.3704 56.9222 61.0071 56.9222C61.0469 56.9222 61.0867 56.9222 61.1265 56.9222C61.9224 56.8427 62.6388 56.7235 63.3153 56.5645C63.3551 56.6042 63.3949 56.644 63.4347 56.6837C63.4745 56.7235 68.9265 60.8575 68.7673 67.933C68.7673 68.6087 69.2847 69.1652 69.9612 69.1652C69.9612 69.1652 69.9612 69.1652 70.001 69.1652C70.6775 69.1652 71.1949 68.6485 71.2347 67.9727C71.3541 61.6922 67.8122 57.439 65.9816 55.6502C68.4888 54.4974 70.1602 52.7087 71.2347 51.1982C72.5479 49.2902 73.1847 47.4617 73.4235 46.5872C78.2786 42.8904 79.5122 35.8546 75.9704 30.6871Z" fill="white"/>
</g>
<defs>
<clipPath id="clip0">
<rect width="78" height="70" fill="white"/>
</clipPath>
</defs>
</svg>
