<svg width="70" height="70" viewBox="0 0 70 70" fill="none" xmlns="http://www.w3.org/2000/svg">
<path d="M4.00229 66.4156L7.09898 48.2863C7.43271 46.333 8.81835 44.7639 10.7156 44.1916L19.068 41.6715C19.241 39.6297 20.0781 37.7035 21.4713 36.1788C22.5857 34.9593 23.9873 34.0713 25.5324 33.5813C25.2679 33.2879 25.0228 32.9954 24.7979 32.7094C22.8116 30.1833 21.7483 27.4002 21.4775 25.5011H20.8332C19.1573 25.5011 17.7938 24.1377 17.7938 22.4617V20.9036C17.7938 19.7851 18.423 18.7716 19.3692 18.2457V14.499C19.3692 13.9329 19.8282 13.4739 20.3943 13.4739C20.9605 13.4739 21.4193 13.9327 21.4193 14.499V18.705C21.8185 18.7744 22.2949 18.8941 22.7821 19.0993C22.832 19.1175 22.8806 19.1386 22.9265 19.1639C23.0366 19.214 23.1468 19.267 23.2565 19.3266V11.0657C23.2565 8.7835 25.1132 6.92686 27.3954 6.92686H30.2248C31.2007 6.92686 32.154 7.26687 32.9096 7.88457L33.1872 8.11152C33.6972 8.52852 34.3409 8.7582 34.9997 8.7582C35.6586 8.7582 36.3024 8.52852 36.8123 8.11152L37.0899 7.88457C37.8454 7.26701 38.7987 6.92686 39.7746 6.92686H42.6043C44.8865 6.92686 46.7432 8.7835 46.7432 11.0657V19.3266C46.853 19.267 46.9632 19.214 47.0732 19.1639C47.1192 19.1386 47.1675 19.1175 47.2174 19.0993C47.7047 18.8941 48.1812 18.7744 48.5803 18.705V8.06982C48.5803 4.75057 45.8798 2.0501 42.5605 2.0501H27.4393C24.1199 2.0501 21.4196 4.75057 21.4196 8.06982V9.68119C21.4196 10.2473 20.9606 10.7063 20.3946 10.7063C19.8286 10.7063 19.3695 10.2475 19.3695 9.68119V8.06982C19.3695 3.62018 22.9897 0 27.4393 0H42.5605C47.0103 0 50.6304 3.62018 50.6304 8.06982V18.2458C51.5766 18.7718 52.2058 19.7851 52.2058 20.9037V22.4618C52.2058 24.1378 50.8423 25.5012 49.1664 25.5012H48.522C48.2515 27.4004 47.1879 30.1834 45.2017 32.7095C44.977 32.9953 44.732 33.2875 44.4679 33.5806C48.0199 34.7088 50.6101 37.9023 50.9316 41.6715L59.2842 44.1916C61.1815 44.7639 62.5673 46.333 62.9009 48.2863L64.1584 55.6485C64.2537 56.2066 63.8785 56.7361 63.3206 56.8314C62.7628 56.927 62.233 56.5517 62.1376 55.9936L60.88 48.6314C60.6782 47.4496 59.8399 46.5005 58.6921 46.1543L50.9668 43.8234V45.8511C52.7376 46.177 54.2444 47.3934 54.8649 49.0788C55.0297 49.5261 55.1321 49.9945 55.1693 50.4708L55.9159 60.0541C55.9722 60.776 55.7225 61.4949 55.2309 62.026C54.7394 62.5573 54.0423 62.8622 53.3184 62.8622H52.0403C51.4742 62.8622 51.0152 62.4034 51.0152 61.8371C51.0152 61.2708 51.4742 60.8121 52.0403 60.8121H53.3184C53.4727 60.8121 53.6212 60.7473 53.7261 60.6338C53.8308 60.5206 53.884 60.3675 53.872 60.2137L53.1253 50.6302C53.1028 50.3416 53.0408 50.0579 52.941 49.7871C52.5093 48.6147 51.3433 47.8208 50.0395 47.8116L49.8706 47.8104C49.8627 47.8103 49.8549 47.8103 49.8471 47.8103C48.5799 47.8103 47.4581 48.5289 46.9849 49.646C46.8521 49.9592 46.7715 50.2904 46.745 50.6302L45.9981 60.2138C45.9862 60.3675 46.0393 60.5206 46.1441 60.6339C46.2488 60.7471 46.3974 60.8121 46.5518 60.8121H47.8298C48.396 60.8121 48.8549 61.2709 48.8549 61.8371C48.8549 62.4032 48.396 62.8622 47.8298 62.8622H46.5518C45.8278 62.8622 45.1306 62.5574 44.6392 62.026C44.1476 61.4946 43.8978 60.7759 43.9541 60.0543L44.701 50.4708C44.7448 49.91 44.8781 49.3633 45.0972 48.8461C45.7725 47.2523 47.2164 46.1442 48.9169 45.8444V43.2049L45.3931 42.1416C45.0725 42.8169 44.4371 44.2761 43.1786 47.4216C41.9103 50.5954 40.3338 54.6634 38.8218 58.6182C38.811 58.6514 38.7986 58.6838 38.7846 58.7155C37.7757 61.3557 36.7969 63.9416 35.9598 66.1723C35.8096 66.5723 35.4272 66.8373 35 66.8373C34.5727 66.8373 34.1903 66.5723 34.0402 66.1723C33.2032 63.9416 32.2245 61.3557 31.2153 58.7155C31.2013 58.6838 31.189 58.6512 31.1782 58.6182C29.6673 54.6658 28.0916 50.6003 26.8238 47.4275C25.5637 44.2779 24.9278 42.8174 24.607 42.1416L21.0833 43.2049V49.2595C23.5248 49.7338 25.3742 51.8871 25.3742 54.4653C25.3742 57.3899 22.9949 59.7693 20.0702 59.7693C17.1455 59.7693 14.7662 57.39 14.7662 54.4653C14.7662 51.8956 16.6034 49.7474 19.0332 49.2639V43.8236L11.3077 46.1545C10.16 46.5006 9.32175 47.4497 9.11981 48.6315L6.02314 66.7609C5.97173 67.0615 6.05171 67.3554 6.24845 67.5886C6.44505 67.8215 6.72136 67.95 7.02638 67.95H62.9736C63.2786 67.95 63.5548 67.8217 63.7515 67.5886C63.9481 67.3554 64.0283 67.0616 63.9768 66.7609L62.9549 60.7778C62.8596 60.2197 63.2347 59.6902 63.7927 59.5949C64.3505 59.4992 64.8803 59.8747 64.9757 60.4327L65.9977 66.4158C66.1501 67.3088 65.9025 68.2181 65.3185 68.9106C64.7341 69.603 63.8795 70 62.9736 70H7.02638C6.12048 70 5.26571 69.603 4.68151 68.9105C4.09745 68.218 3.84985 67.3087 4.00229 66.4156ZM21.4073 20.7934C20.8611 20.6572 20.4226 20.6597 20.4177 20.6598C20.2411 20.6622 20.0693 20.6209 19.9168 20.5409C19.8711 20.6545 19.8442 20.7766 19.8442 20.9037V22.4618C19.8442 23.0073 20.288 23.4511 20.8335 23.4511H21.4073V20.7934ZM48.5927 23.4511H49.1665C49.712 23.4511 50.1558 23.0073 50.1558 22.4618V20.9037C50.1558 20.7766 50.1287 20.6545 50.0832 20.541C49.9308 20.621 49.7591 20.6623 49.5823 20.6598C49.5745 20.6612 49.1373 20.6588 48.5927 20.794V23.4511ZM46.5426 24.6005V21.9074C46.232 22.0005 45.8922 21.9878 45.5786 21.857C45.0406 21.6325 44.6931 21.1112 44.6931 20.5286V11.0657C44.6931 9.91402 43.756 8.97695 42.6043 8.97695H39.7749C39.2707 8.97695 38.7781 9.15264 38.3877 9.47174L38.1102 9.69869C37.2351 10.4143 36.1305 10.8082 35 10.8082C33.8695 10.8082 32.7649 10.4141 31.8898 9.69869L31.6122 9.47174C31.222 9.15264 30.7293 8.97695 30.2251 8.97695H27.3957C26.244 8.97695 25.3069 9.91402 25.3069 11.0657V20.5287C25.3069 21.1112 24.9594 21.6326 24.4214 21.8571C24.2417 21.932 24.0536 21.9684 23.8671 21.9684C23.7281 21.9684 23.5901 21.948 23.4574 21.9084V24.6005C23.4574 26.0971 24.4921 29.0035 26.4097 31.4423C27.0449 32.2502 27.8614 33.1181 28.8667 33.8766C28.8985 33.8979 28.929 33.921 28.9581 33.9456C30.5155 35.0971 32.518 35.9792 35 35.9792C37.482 35.9792 39.4845 35.0971 41.042 33.9455C41.0711 33.921 41.1015 33.8979 41.1332 33.8767C42.1385 33.1181 42.955 32.2502 43.5903 31.4423C45.5078 29.0037 46.5426 26.0971 46.5426 24.6005ZM28.2844 41.1619L35 46.1814L41.7156 41.1619C41.0497 40.3155 40.6766 39.229 40.6766 38.2594V36.607C39.0973 37.4563 37.2129 38.0294 35 38.0294C32.7871 38.0294 30.9025 37.4563 29.3234 36.607V38.2594C29.3234 39.229 28.9503 40.3155 28.2844 41.1619ZM43.4264 40.0177C43.9738 39.8092 44.5807 39.775 45.1548 39.9308C45.1799 39.9366 45.2045 39.9433 45.2285 39.9505L48.7699 41.019C48.1709 38.0738 45.7794 35.7297 42.7267 35.2756V38.2594C42.7267 38.9025 43.0138 39.5674 43.4264 40.0177ZM40.6443 48.2465C40.6462 48.2418 40.6481 48.237 40.6499 48.2323C40.7018 48.1009 40.7531 47.9713 40.804 47.8432C40.8131 47.82 40.8223 47.7969 40.8315 47.7739C40.8812 47.6485 40.9306 47.5241 40.9792 47.4018C40.9827 47.3931 40.9861 47.3847 40.9895 47.3759C41.1414 46.9941 41.2878 46.6278 41.4286 46.2768C41.4389 46.2514 41.4492 46.2256 41.4594 46.2003C41.4999 46.0996 41.5397 46.0005 41.5792 45.9026C41.5937 45.8667 41.608 45.8311 41.6224 45.7956C41.6607 45.7007 41.6987 45.6064 41.7361 45.5141C41.7473 45.4865 41.7583 45.4597 41.7693 45.4322C41.8373 45.2646 41.9037 45.1012 41.9685 44.9419C41.986 44.8988 42.004 44.855 42.0213 44.8124C42.0467 44.7504 42.0715 44.6899 42.0964 44.6291C42.1232 44.5635 42.15 44.4984 42.1762 44.4344C42.1861 44.4105 42.1963 44.3852 42.2062 44.3614C42.2141 44.3423 42.2213 44.3246 42.2291 44.3056C42.3475 44.018 42.46 43.7469 42.5668 43.4919C42.5676 43.4898 42.5686 43.4878 42.5694 43.4857C42.6263 43.35 42.6819 43.2173 42.7354 43.091C42.7632 43.0255 42.7905 42.9611 42.8173 42.898L37.0416 47.2147L39.455 48.24C39.4592 48.2418 39.4636 48.2435 39.4678 48.2454L40.4754 48.6735C40.5326 48.529 40.5885 48.3874 40.6443 48.2465ZM38.1984 54.523C38.4009 53.9976 38.6049 53.4692 38.8092 52.9413C39.1289 52.1157 39.4342 51.3306 39.7264 50.5828L39.3438 50.4202L37.7808 52.2371L38.1984 54.523ZM34.9802 62.8544C35.0096 62.7934 35.0446 62.7359 35.085 62.6823C35.5482 61.458 36.1361 59.9088 36.7868 58.2043L35.8297 52.9646H34.1702L33.2132 58.2043C33.895 59.99 34.5074 61.6046 34.9802 62.8544ZM33.7858 50.9146H36.2142L37.3633 49.5789L35 48.5749L32.6367 49.5789L33.7858 50.9146ZM31.1907 52.9413C31.3951 53.4692 31.5991 53.9976 31.8016 54.523L32.2191 52.2369L30.6562 50.4201L30.2736 50.5827C30.5658 51.3305 30.8711 52.1157 31.1907 52.9413ZM27.2644 43.091C27.3152 43.2108 27.3679 43.3364 27.4217 43.4647C27.4286 43.4813 27.4358 43.4982 27.4427 43.515C27.4959 43.6421 27.5501 43.772 27.6061 43.9072C27.6098 43.9161 27.6136 43.9255 27.6173 43.9346C27.6657 44.0512 27.7153 44.1715 27.7658 44.2941C27.7752 44.3171 27.7841 44.3383 27.7935 44.3614C27.8048 44.3889 27.8168 44.418 27.8281 44.4458C27.8506 44.5004 27.8734 44.5562 27.8964 44.612C27.9245 44.6808 27.9525 44.7493 27.9814 44.8197C27.9906 44.8421 28 44.8655 28.0093 44.888C28.0807 45.0629 28.1539 45.2431 28.2289 45.4282C28.2406 45.4572 28.2522 45.4856 28.264 45.515C28.301 45.6065 28.3388 45.6999 28.3767 45.7938C28.3914 45.8306 28.4063 45.8672 28.4212 45.9044C28.4603 46.0013 28.4998 46.0995 28.5398 46.199C28.551 46.2268 28.5623 46.2552 28.5735 46.2831C28.7126 46.6293 28.8568 46.9904 29.0065 47.3666C29.0114 47.3791 29.0164 47.3912 29.0213 47.4038C29.0697 47.5254 29.1186 47.6489 29.1681 47.7735C29.1773 47.7967 29.1866 47.82 29.1959 47.8434C29.247 47.9721 29.2985 48.1023 29.3508 48.2345C29.3517 48.237 29.3527 48.2394 29.3536 48.2418C29.41 48.3842 29.4666 48.5275 29.5243 48.6738L30.5328 48.2453C30.5364 48.2438 30.54 48.2423 30.5434 48.2408L32.9581 47.215L27.1824 42.8982C27.2095 42.9611 27.2368 43.0254 27.2644 43.091ZM24.7715 39.9506C24.7717 39.9506 24.7719 39.9505 24.7721 39.9505C24.7729 39.9502 24.7738 39.95 24.7747 39.9496C25.3694 39.7712 26.0038 39.8007 26.5735 40.0177C26.9862 39.5674 27.2732 38.9025 27.2732 38.2594V35.2741C24.2013 35.7269 21.817 38.0491 21.2259 41.0203L24.7715 39.9506ZM16.8163 54.4653C16.8163 56.2596 18.276 57.7192 20.0702 57.7192C21.8643 57.7192 23.3241 56.2596 23.3241 54.4653C23.3241 52.671 21.8643 51.2114 20.0702 51.2114C18.276 51.2114 16.8163 52.671 16.8163 54.4653Z" fill="white"/>
</svg>
