<svg width="24" height="24" viewBox="0 0 24 24" fill="none" xmlns="http://www.w3.org/2000/svg">
<path d="M20.4853 3.51473C18.2188 1.24823 15.2053 0 12 0C8.79469 0 5.78119 1.24823 3.51469 3.51473C1.24819 5.78123 0 8.79469 0 12C0 15.2053 1.24819 18.2188 3.51469 20.4853C5.78119 22.7517 8.79469 24 12 24C15.2053 24 18.2188 22.7518 20.4853 20.4853C22.7518 18.2188 24 15.2053 24 12C24 8.79469 22.7518 5.78119 20.4853 3.51473ZM12 21.6446C6.68189 21.6446 2.35538 17.3181 2.35538 12C2.35538 11.9913 2.35566 11.9827 2.3557 11.974C2.3557 11.9718 2.35538 11.9697 2.35538 11.9675C2.35538 11.9638 2.35584 11.9602 2.35594 11.9566C2.37933 6.70223 6.62559 2.42738 11.8689 2.35706C11.8799 2.35655 11.8908 2.35542 11.9019 2.35542C11.9085 2.35542 11.915 2.35622 11.9216 2.35641C11.9478 2.35622 11.9738 2.35542 12 2.35542C17.3182 2.35542 21.6447 6.68198 21.6447 12C21.6447 17.3181 17.3181 21.6446 12 21.6446Z" fill="white"/>
<path d="M19.3259 12.5792C18.9337 12.5792 18.6158 12.2613 18.6158 11.8692C18.6158 11.477 18.9337 11.1591 19.3259 11.1591H20.1818C19.7798 7.21805 16.5835 4.09163 12.6118 3.7981V4.54317C12.6118 4.93533 12.2939 5.25324 11.9018 5.25324C11.5096 5.25324 11.1917 4.93533 11.1917 4.54317V3.81506C7.27876 4.1985 4.1619 7.33547 3.80926 11.2572H4.57576C4.96791 11.2572 5.28582 11.5751 5.28582 11.9673C5.28582 12.3594 4.96791 12.6773 4.57576 12.6773H3.80344C4.12993 16.6622 7.30927 19.8513 11.2899 20.1934V19.2932C11.2899 18.9011 11.6078 18.5832 11.9999 18.5832C12.3921 18.5832 12.71 18.9011 12.71 19.2932V20.1934C16.7231 19.8485 19.9218 16.6097 20.2037 12.5792H19.3259ZM14.8743 10.1296L12.502 12.5019C12.3689 12.6351 12.1883 12.7099 12 12.7099C11.8117 12.7099 11.631 12.6351 11.4979 12.5019L7.36852 8.37258C7.09121 8.09531 7.09121 7.64574 7.36852 7.36842C7.64579 7.09111 8.09537 7.09111 8.37268 7.36842L12 10.9957L13.8702 9.12549C14.1475 8.84817 14.5971 8.84817 14.8744 9.12549C15.1516 9.40275 15.1516 9.85238 14.8743 10.1296Z" fill="white"/>
</svg>
