<svg width="54" height="22" viewBox="0 0 54 22" fill="none" xmlns="http://www.w3.org/2000/svg">
<path fill-rule="evenodd" clip-rule="evenodd" d="M31 10.9825C36.2594 14.0998 42.07 17.4287 47.5416 20.5744C48.3971 21.0671 49.2398 21.6988 50.1079 21.9451C50.3139 22.0051 51.1947 22.0304 51.6192 21.9451C52.5729 21.7525 53.7293 20.8018 53.9099 19.6142C54.1127 18.2783 53.9099 16.7307 53.9099 15.2747C53.9099 12.5269 53.9099 9.42855 53.9099 6.5955C53.9099 5.15529 54.1095 3.49716 53.8655 2.3033C53.5645 0.828344 52.0976 -0.283396 50.1998 0.0640242C49.4046 0.209309 48.4478 0.894673 47.681 1.34316C42.0985 4.59627 36.6237 7.71672 31 10.9825Z" fill="white" fill-opacity="0.2"/>
<path fill-rule="evenodd" clip-rule="evenodd" d="M-9.63184e-07 10.9825C5.25936 14.0998 11.07 17.4287 16.5416 20.5744C17.3971 21.0671 18.2398 21.6988 19.1079 21.9451C19.3139 22.0051 20.1947 22.0304 20.6192 21.9451C21.5729 21.7525 22.7293 20.8018 22.9099 19.6142C23.1127 18.2783 22.9099 16.7307 22.9099 15.2747C22.9099 12.5269 22.9099 9.42855 22.9099 6.5955C22.9099 5.15529 23.1095 3.49716 22.8655 2.3033C22.5645 0.828345 21.0976 -0.283395 19.1998 0.0640242C18.4046 0.209309 17.4478 0.894673 16.681 1.34316C11.0985 4.59627 5.62371 7.71672 -9.63184e-07 10.9825Z" fill="white" fill-opacity="0.2"/>
</svg>
